<svg xmlns="http://www.w3.org/2000/svg" fill="transparent" version="1.2" viewBox="0 0 440 301">
  <path d="M440 300.22H0V.03h440v300.19Z"/>
  <path stroke="currentColor" stroke-width="3.315" d="M306.42 177.6c-14.55 21.66-39.69 39.93-84.26 39.93-44.58 0-78.73-33.23-78.73-56.18 0-39.98 46.42-70.64 90.99-70.64 30.06 0 7.29 45.83 20.17 53.63 12.01 7.28 29.29-32.59 50.25-16.22 12.66 9.89 11.07 36.82 1.58 49.48Z"/>
  <path stroke="currentColor" stroke-width="3.315" d="M233.92 113.74c0 6.06-4.91 10.97-10.97 10.97-6.06 0-10.97-4.91-10.97-10.97 0-6.05 4.91-10.96 10.97-10.96 6.06 0 10.97 4.91 10.97 10.96Z"/>
  <path stroke="currentColor" stroke-width="2.565" d="M197.43 131.19c0 4.69-3.8 8.49-8.49 8.49-4.68 0-8.48-3.8-8.48-8.49s3.8-8.49 8.48-8.49c4.69 0 8.49 3.8 8.49 8.49Z"/>
  <path stroke="currentColor" stroke-width="2.19" d="M176.04 154.12c0 4-3.25 7.24-7.25 7.24s-7.24-3.24-7.24-7.24 3.24-7.25 7.24-7.25 7.25 3.25 7.25 7.25Z"/>
  <path d="m288.02 113.34-90.81 90.81c-3.27 3.27-8.56 3.27-11.82 0l-3.73-3.72c-3.26-3.27-3.26-8.56 0-11.82l90.81-90.81a8.36 8.36 0 0 1 11.83 0l3.72 3.72c3.26 3.26 3.26 8.56 0 11.82Z"/>
  <path fill="currentColor" stroke="currentColor" stroke-linecap="round" stroke-linejoin="round" stroke-width="2.565" d="m288.41 101.71-96.48 96.48c-1.7 1.7-4.45 1.7-6.15 0h0c-1.7-1.7-1.7-4.45 0-6.15l96.48-96.48c1.7-1.7 4.45-1.7 6.15 0h0c1.7 1.7 1.7 4.45 0 6.15Z"/>
  <path fill="currentColor" stroke="currentColor" stroke-linecap="round" stroke-linejoin="round" stroke-width="1.472" d="M301.01 100.59c-5.44 5.44-14.92 7.42-21.26 1.08-6.34-6.34-1.33-17.74 2.09-20.87 5.16-4.74 15.09 1.01 24.48-5.01-5.54 9.87.16 19.32-5.31 24.8Z"/>
</svg>
