<svg xmlns="http://www.w3.org/2000/svg" version="1.2" viewBox="0 0 440 301">
  <path fill="transparent" d="M440 300.43H0V.23h440v300.2Z"/>
  <g fill="currentColor">
    <path fill-rule="evenodd" d="M94.72 236.41c6.24 0 9.41 4.91 9.41 14.05-.26 9.06-3.55 13.97-9.75 13.97-6.23 0-9.4-4.87-9.4-14.01.15-4.57 1.02-8.05 2.64-10.43 1.63-2.34 4.01-3.58 7.1-3.58Zm0 2.75c-3.13 0-4.68 2.91-4.68 8.77 0 3.17.38 5.4 1.1 6.87l-.04-.04c.64 1.29 1.74 1.93 3.28 1.93 1.52 0 2.69-.79 3.52-2.3.83-1.52 1.32-3.74 1.55-6.5 0-5.82-1.55-8.73-4.73-8.73Zm-2.11 9.29c0-2.15.23-4.26 1.96-4.26 1.55 0 1.93 1.62 1.93 4.26 0 1.4-.38 3.25-1.93 3.25-1.58 0-1.96-1.85-1.96-3.25Z"/>
    <path d="m293.23 124.29 3.31-3.31 3.05 3.05 8.64-8.64-3.96-2.67 2.44-2.44 4.36 2.9 2.24 2.25-11.16 11.16 3.05 3.05-3.31 3.31-8.66-8.66Z"/>
    <path fill-rule="evenodd" d="M232.61 55.62c4.6 1.69 5.61 6.17 3.14 12.92-2.65 6.63-6.41 9.36-10.98 7.69-4.61-1.69-5.63-6.15-3.16-12.9 1.35-3.33 2.94-5.67 4.78-6.98 1.83-1.29 3.93-1.57 6.22-.73Zm-.75 2.03c-2.32-.84-4.25.89-5.83 5.21-.86 2.34-1.19 4.09-1.05 5.37l-.02-.03c.12 1.12.76 1.89 1.9 2.31 1.12.41 2.2.14 3.22-.75s1.99-2.41 2.9-4.38c1.58-4.3 1.22-6.87-1.12-7.73Zm-4.08 6.3c.58-1.59 1.32-3.1 2.61-2.63 1.14.42.98 1.73.26 3.68-.37 1.03-1.15 2.3-2.3 1.88-1.17-.43-.95-1.9-.57-2.93Z"/>
    <path d="m211.56 188.56-1.86-4.3 3.96-1.7-4.84-11.23-3.94 2.7-1.37-3.17 4.31-2.98 2.92-1.26 6.25 14.5 3.96-1.71 1.86 4.3-11.25 4.85Z"/>
    <path fill-rule="evenodd" d="M156.45 265.06c4.14 2.62 4.18 7.22.33 13.29-4 5.91-8.25 7.79-12.37 5.18-4.14-2.63-4.19-7.2-.34-13.27 2.03-2.98 4.07-4.92 6.15-5.81 2.07-.87 4.17-.7 6.23.61Zm-1.16 1.83c-2.08-1.32-4.34-.04-6.8 3.84-1.34 2.11-2.03 3.75-2.17 5.03l-.01-.04c-.12 1.13.34 2.01 1.37 2.67 1 .63 2.11.6 3.3-.05 1.19-.66 2.46-1.93 3.77-3.67 2.45-3.86 2.65-6.44.54-7.78Zm-5.32 5.28c.91-1.43 1.95-2.74 3.1-2.01 1.03.65.6 1.89-.52 3.65-.59.93-1.62 2-2.65 1.34-1.05-.66-.52-2.05.07-2.98Zm52.75-54.14c4.89.26 7.18 4.24 6.81 11.43-.58 7.11-3.36 10.83-8.23 10.58-4.89-.26-7.19-4.21-6.81-11.4.3-3.58 1.13-6.27 2.5-8.08 1.37-1.77 3.29-2.65 5.73-2.53Zm-.12 2.17c-2.46-.13-3.79 2.09-4.03 6.69-.13 2.5.07 4.26.58 5.45l-.03-.03c.45 1.03 1.28 1.58 2.5 1.64 1.19.07 2.14-.51 2.85-1.66.72-1.16 1.2-2.89 1.49-5.04.23-4.57-.86-6.92-3.36-7.05Zm-2.04 7.21c.09-1.69.35-3.34 1.72-3.27 1.22.06 1.45 1.35 1.34 3.43-.06 1.1-.43 2.54-1.65 2.47-1.24-.06-1.46-1.53-1.41-2.63Zm-3.54-116.8c4.88-.39 7.68 3.26 8.25 10.43.37 7.12-1.9 11.18-6.76 11.57-4.89.39-7.68-3.23-8.25-10.4-.17-3.59.29-6.37 1.41-8.34 1.13-1.94 2.92-3.06 5.35-3.26Zm.17 2.16c-2.46.2-3.49 2.58-3.12 7.17.2 2.49.63 4.21 1.29 5.32l-.03-.03c.58.97 1.48 1.41 2.69 1.31 1.19-.1 2.06-.79 2.61-2.03.56-1.24.81-3.01.81-5.19-.36-4.56-1.76-6.75-4.25-6.55Zm-1.07 7.42c-.14-1.69-.1-3.36 1.27-3.47 1.21-.09 1.61 1.15 1.78 3.23.08 1.09-.1 2.57-1.31 2.67-1.24.1-1.66-1.33-1.74-2.43Zm-47.01-99.17c3.47-3.47 7.97-2.5 13.05 2.58 4.9 5.19 5.8 9.75 2.35 13.2-3.46 3.46-7.94 2.52-13.02-2.57-2.46-2.62-3.91-5.04-4.33-7.27-.4-2.2.23-4.22 1.95-5.94Zm1.54 1.53c-1.75 1.74-.99 4.22 2.27 7.48 1.76 1.77 3.21 2.8 4.43 3.22h-.04c1.07.35 2.04.1 2.9-.76.84-.84 1.05-1.93.67-3.24-.38-1.3-1.34-2.81-2.75-4.47-3.24-3.24-5.72-3.99-7.48-2.23Zm3.99 6.35c-1.2-1.2-2.25-2.5-1.28-3.47.86-.86 1.97-.17 3.44 1.3.78.78 1.6 2.02.74 2.88-.88.88-2.12.06-2.9-.71ZM91.75 135c3.46-3.46 7.96-2.5 13.04 2.59 4.9 5.19 5.8 9.75 2.36 13.19-3.47 3.47-7.95 2.52-13.03-2.56-2.46-2.63-3.91-5.04-4.33-7.27-.4-2.21.23-4.22 1.96-5.95Zm1.53 1.54c-1.75 1.74-.99 4.22 2.27 7.48 1.76 1.76 3.21 2.79 4.43 3.21h-.04c1.07.36 2.04.11 2.9-.75.84-.84 1.05-1.94.67-3.24-.38-1.3-1.34-2.82-2.75-4.48-3.24-3.23-5.72-3.99-7.48-2.22Zm3.99 6.34c-1.2-1.19-2.25-2.5-1.28-3.46.86-.87 1.97-.17 3.45 1.3.77.78 1.59 2.02.73 2.88-.88.88-2.12.06-2.9-.72Zm298.57-4.41c4.12 6.4 1.18 12.91-8.22 18.96-9.49 5.73-16.72 5.6-20.81-.77-4.13-6.41-1.22-12.89 8.18-18.94 4.8-2.87 8.95-4.27 12.47-4.18 3.48.12 6.33 1.74 8.38 4.93Zm-2.83 1.82c-2.08-3.22-6.09-2.89-12.11.98-3.26 2.1-5.3 3.97-6.34 5.68l.01-.07c-.89 1.51-.83 3.06.2 4.66 1 1.55 2.59 2.23 4.69 2.08 2.1-.14 4.72-1.11 7.7-2.7 5.98-3.85 7.95-7.37 5.85-10.63Zm-10.95 3.97c2.21-1.42 4.53-2.59 5.68-.8 1.03 1.59-.39 3.05-3.11 4.8-1.44.93-3.59 1.76-4.61.17-1.05-1.63.6-3.24 2.04-4.17ZM320.6 55.19c2.82-2.82 6.48-2.04 10.61 2.1 3.99 4.22 4.72 7.93 1.92 10.73-2.82 2.82-6.46 2.05-10.6-2.08-2-2.14-3.18-4.1-3.52-5.92-.33-1.79.19-3.43 1.59-4.83Zm1.25 1.24c-1.42 1.42-.81 3.44 1.84 6.09 1.44 1.44 2.62 2.27 3.61 2.61h-.04c.88.3 1.66.09 2.36-.61.69-.68.86-1.57.55-2.63-.31-1.06-1.09-2.29-2.24-3.64-2.63-2.64-4.65-3.25-6.08-1.82Zm3.24 5.17c-.97-.98-1.82-2.04-1.04-2.82.7-.7 1.61-.14 2.8 1.06.64.63 1.3 1.64.6 2.34-.72.72-1.72.05-2.36-.58Zm-30.3 112.69c6.35.62 9.1 5.94 8.2 15.26-1.17 9.22-5.01 13.9-11.32 13.29-6.36-.62-9.11-5.9-8.21-15.22.61-4.65 1.84-8.11 3.73-10.37 1.89-2.23 4.44-3.27 7.6-2.96Zm-.28 2.81c-3.19-.31-5.06 2.5-5.64 8.47-.31 3.24-.15 5.55.44 7.12l-.04-.04c.53 1.37 1.58 2.14 3.16 2.29 1.54.15 2.82-.54 3.81-2 1-1.46 1.72-3.68 2.22-6.47.58-5.93-.71-9.05-3.95-9.37Zm-3.07 9.27c.21-2.2.65-4.33 2.42-4.16 1.58.15 1.81 1.85 1.54 4.54-.13 1.43-.7 3.28-2.28 3.12-1.62-.15-1.82-2.08-1.68-3.5Zm93.8 59.61c4.77 1.11 6.33 5.44 4.7 12.44-1.83 6.9-5.22 10.08-9.97 8.97-4.77-1.11-6.33-5.41-4.7-12.41.93-3.48 2.22-5.99 3.89-7.52 1.66-1.5 3.71-2.03 6.08-1.48Zm-.49 2.11c-2.4-.56-4.11 1.39-5.16 5.88-.56 2.43-.67 4.21-.38 5.46l-.03-.03c.27 1.1.99 1.78 2.18 2.06 1.15.27 2.19-.13 3.1-1.14.91-1.01 1.68-2.63 2.35-4.7 1.04-4.46.37-6.96-2.06-7.53Zm-3.28 6.74c.38-1.65.93-3.23 2.26-2.92 1.19.28 1.19 1.59.72 3.62-.25 1.07-.87 2.42-2.06 2.14-1.21-.28-1.17-1.77-.92-2.84ZM65.99 42.08c6.16-1.86 10.76 2.04 13.5 11.07 2.45 9.03.67 14.87-5.45 16.72-6.16 1.87-10.75-2-13.48-11.03-1.22-4.56-1.4-8.25-.51-11.09.9-2.8 2.88-4.74 5.94-5.67Zm.83 2.72c-3.1.94-3.76 4.28-2.01 10.06.95 3.14 1.99 5.23 3.14 6.47l-.05-.03c1.02 1.08 2.29 1.38 3.82.92 1.5-.45 2.42-1.58 2.78-3.33.37-1.74.19-4.09-.41-6.88-1.74-5.74-4.14-8.15-7.27-7.21Zm.69 9.82c-.65-2.13-1.06-4.29.66-4.81 1.53-.46 2.39 1.03 3.18 3.64.42 1.38.6 3.33-.93 3.79-1.57.47-2.5-1.24-2.91-2.62Z"/>
    <path d="m262.52 30.19 3.31-3.31 3.05 3.05 8.64-8.65-3.95-2.66 2.44-2.44 4.36 2.9 2.24 2.24-11.16 11.17 3.05 3.05-3.32 3.31-8.66-8.66ZM49.25 280.47l-3.63-5.93 5.47-3.34-9.47-15.48-5.22 4.79-2.68-4.38 5.72-5.28 4.01-2.46 12.23 20 5.46-3.33 3.63 5.93-15.52 9.48Zm256.41-27.38 3.31-3.31 3.05 3.05 8.64-8.64-3.96-2.66 2.45-2.45 4.36 2.91 2.24 2.24-11.17 11.17 3.05 3.04-3.31 3.32-8.66-8.67Zm-170.93-53.75 3.31-3.31 3.05 3.05 8.64-8.64-3.96-2.67 2.44-2.44 4.36 2.91 2.24 2.24-11.16 11.16 3.05 3.05-3.31 3.31-8.66-8.66ZM33.72 103.78l3.31-3.31 3.05 3.05 8.64-8.64-3.95-2.66 2.44-2.45 4.36 2.91 2.24 2.24-11.16 11.17 3.05 3.05-3.32 3.31-8.66-8.67Zm12.68 98.2 1.44-4.46 4.1 1.33 3.77-11.62-4.73-.58 1.06-3.28 5.21.6 3.01.98-4.87 15.02 4.11 1.33-1.45 4.46-11.65-3.78Zm317.4 14.62-1.82-4.32 3.97-1.67-4.76-11.26-3.95 2.66-1.35-3.18 4.34-2.95 2.92-1.23 6.14 14.54 3.97-1.67 1.82 4.31-11.28 4.77Zm-123.6 57.7-1.04-3.46 3.19-.96-2.72-9.03-3.25 1.72-.77-2.55 3.57-1.9 2.34-.71 3.5 11.66 3.19-.95 1.04 3.46-9.05 2.72ZM392.84 98.02l-2.37-5.13 4.73-2.19-6.19-13.4-4.67 3.37-1.75-3.79 5.12-3.73 3.47-1.6 8 17.32 4.73-2.18 2.37 5.13-13.44 6.2Zm-255.62 7.84-1.39-6.32 5.82-1.28-3.63-16.49-6.05 2.62-1.02-4.66 6.63-2.92 4.28-.94 4.69 21.32 5.82-1.29 1.39 6.33-16.54 3.63Z"/>
  </g>
</svg>
