<svg xmlns="http://www.w3.org/2000/svg"  version="1.2" viewBox="0 0 440 302">
  <path fill="transparent"  d="M440 301.02H0V.83h440v300.19Z"/>
  <path fill="none" stroke="currentColor" stroke-width="2.5" d="M280.3 139.45c0 31.33-25.39 56.73-56.72 56.73s-56.72-25.4-56.72-56.73c0-31.32 25.39-56.72 56.72-56.72s56.72 25.4 56.72 56.72Z"/>
  <path fill="none" stroke="currentColor" stroke-width="1.819" d="M253.62 139.45c0 31.33-13.45 56.73-30.04 56.73s-30.04-25.4-30.04-56.73c0-31.32 13.45-56.72 30.04-56.72s30.04 25.4 30.04 56.72Z"/>
  <path fill="none" stroke="currentColor" stroke-width="1.819" d="M223.58 109.41c31.33 0 56.72 13.45 56.72 30.04 0 16.6-25.39 30.05-56.72 30.05s-56.72-13.45-56.72-30.05c0-16.59 25.39-30.04 56.72-30.04Z"/>
  <path fill="none" stroke="currentColor" stroke-width="1.465" d="M223.58 96.7c28.56 0 51.71 9.57 51.71 21.38 0 11.8-23.15 21.37-51.71 21.37-28.56 0-51.71-9.57-51.71-21.37 0-11.81 23.15-21.38 51.71-21.38Z"/>
  <path fill="none" stroke="currentColor" stroke-width="1.178" d="M223.58 154.48c26.26 0 47.54 6.72 47.54 15.02 0 8.29-21.28 15.02-47.54 15.02-26.26 0-47.54-6.73-47.54-15.02 0-8.3 21.28-15.02 47.54-15.02Z"/>
  <path fill="currentColor" d="M228.22 77.43c0 2.74-2.22 4.96-4.97 4.96a4.96 4.96 0 0 1-4.96-4.96 4.96 4.96 0 0 1 4.96-4.96c2.75 0 4.97 2.22 4.97 4.96Zm0 124.05c0 2.74-2.22 4.96-4.97 4.96a4.96 4.96 0 0 1-4.96-4.96 4.96 4.96 0 0 1 4.96-4.96c2.75 0 4.97 2.22 4.97 4.96Z"/>
  <path fill="none" stroke="currentColor" stroke-width="2.816" d="M223.58 75.57c-35.28 0-63.88 28.6-63.88 63.88 0 35.29 28.6 63.89 63.88 63.89"/>
  <path fill="none" stroke="currentColor" stroke-linecap="round" stroke-linejoin="round" stroke-width="4.5" d="m223.27 202.27-3.08 15.81"/>
  <path fill="none" stroke="currentColor" stroke-width="2.5" d="M250.82 218.18c0 6.3-13.71 11.4-30.63 11.4-16.91 0-30.63-5.1-30.63-11.4 0-6.29 13.72-11.39 30.63-11.39 16.92 0 30.63 5.1 30.63 11.39Z"/>
</svg>
