<svg xmlns="http://www.w3.org/2000/svg" fill="none" viewBox="0 0 512 512">
  <path stroke="#fff" stroke-width="10" d="M441 219.89c0 95.84-77.78 173.56-173.69 173.56-95.98 0-173.75-77.72-173.75-173.56S171.33 46.32 267.3 46.32c95.92 0 173.7 77.72 173.7 173.58Z"/>
  <path stroke="#fff" stroke-width="10" d="M356.95 219.89c0 48.65-10.47 92.45-27.15 123.91-16.8 31.69-39.14 49.65-62.5 49.65-23.38 0-45.73-17.97-62.54-49.65-16.68-31.46-27.15-75.26-27.15-123.91 0-48.66 10.47-92.46 27.15-123.92 16.8-31.68 39.16-49.65 62.55-49.65 23.35 0 45.7 17.96 62.49 49.65 16.68 31.46 27.15 75.26 27.15 123.92Z"/>
  <path stroke="#fff" stroke-width="10" d="M267.31 130.31c48.69 0 92.52 10.46 124 27.12 31.72 16.78 49.69 39.1 49.69 62.46 0 23.35-17.97 45.67-49.68 62.45C359.83 299 316 309.46 267.3 309.46c-48.72 0-92.57-10.46-124.06-27.12-31.72-16.78-49.7-39.1-49.7-62.45s17.98-45.68 49.7-62.46c31.49-16.66 75.34-27.12 124.06-27.12Z"/>
  <path stroke="#fff" stroke-width="10" d="M267.3 90.3c44.5 0 84.55 7.46 113.28 19.33 14.37 5.94 25.68 12.88 33.31 20.34 7.62 7.44 11.3 15.09 11.3 22.62 0 7.54-3.68 15.18-11.3 22.63-7.63 7.45-18.94 14.4-33.31 20.34-28.73 11.87-68.77 19.33-113.27 19.33s-84.56-7.46-113.3-19.33c-14.39-5.94-25.7-12.89-33.34-20.35-7.62-7.44-11.3-15.08-11.3-22.62 0-7.53 3.68-15.17 11.3-22.62 7.64-7.45 18.95-14.4 33.34-20.34 28.74-11.87 68.8-19.33 113.3-19.33Zm0 181.9c40.97 0 77.89 5.26 104.39 13.62 13.28 4.19 23.66 9.07 30.62 14.26 7.05 5.26 9.77 10.17 9.77 14.38 0 4.23-2.72 9.16-9.77 14.42-6.96 5.2-17.34 10.08-30.62 14.28-26.5 8.37-63.42 13.62-104.38 13.62-41 0-77.93-5.25-104.44-13.62-13.28-4.2-23.67-9.09-30.63-14.28-7.04-5.26-9.76-10.19-9.76-14.42 0-4.2 2.71-9.12 9.76-14.38 6.96-5.19 17.35-10.07 30.63-14.26 26.51-8.36 63.44-13.62 104.44-13.62Z"/>
  <path fill="#fff" d="M281.86 24.63a15.62 15.62 0 1 1-31.24 0 15.62 15.62 0 0 1 31.24 0Zm0 390.52a15.62 15.62 0 1 1-31.24 0 15.62 15.62 0 0 1 31.24 0Z"/>
  <mask id="a" fill="#fff">
    <path d="M267.3 18.76C156.1 18.76 66 108.8 66 219.9 66 330.96 156.1 421 267.3 421"/>
  </mask>
  <path fill="#fff" d="M267.3 8.76C150.6 8.76 56 103.27 56 219.9h20c0-105.56 85.62-191.13 191.3-191.13v-20ZM56 219.9C56 336.49 150.59 431 267.3 431v-20C161.62 411 76 325.44 76 219.88H56Z" mask="url(#a)"/>
  <mask id="b" fill="#fff">
    <path d="m266.3 417.67-9.7 49.77Z"/>
  </mask>
  <path fill="#fff" d="M276.12 419.58a10 10 0 1 0-19.63-3.83l19.63 3.83Zm-29.34 45.95a10 10 0 1 0 19.63 3.83l-19.63-3.83Zm9.7-49.78-9.7 49.78 19.63 3.83 9.7-49.78-19.62-3.83Z" mask="url(#b)"/>
  <path stroke="#fff" stroke-width="10" d="M348.13 467.76c0 2.98-1.62 6.44-5.89 10.19-4.26 3.74-10.72 7.34-19.13 10.47-16.78 6.23-40.3 10.19-66.51 10.19-26.22 0-49.72-3.96-66.48-10.2-8.4-3.12-14.85-6.72-19.11-10.46-4.27-3.75-5.88-7.2-5.88-10.2 0-3 1.62-6.47 5.88-10.23 4.26-3.75 10.71-7.35 19.11-10.48 16.76-6.24 40.26-10.2 66.48-10.2 26.21 0 49.73 3.96 66.5 10.2 8.42 3.13 14.87 6.74 19.14 10.49 4.27 3.76 5.88 7.22 5.88 10.23Z"/>
</svg>
