<svg xmlns="http://www.w3.org/2000/svg" version="1.2" viewBox="0 0 440 300">
  <path fill="transparent" d="M440 300.15H0V.15h440v300Z"/>
  <g fill="none" stroke="currentColor">
    <path stroke-width="2.939" d="M103.23 122.93 16.29 63.47l59.46-86.94 86.94 59.46-59.46 86.94Z"/>
    <path stroke-width="3.742" d="m359.98 235.93-93.21 17.5 75.71-110.71 110.71 75.71-93.21 17.5Z"/>
    <path stroke-width="4.091" d="M182.16 242.85c0 44.7-36.23 80.93-80.93 80.93-44.69 0-80.92-36.23-80.92-80.93 0-44.69 36.23-80.92 80.92-80.92 44.7 0 80.93 36.23 80.93 80.92Z"/>
    <path stroke-width="2.905" d="m327.56 73.01-40.48 46.82-60.79-11.65-20.3-58.47L246.47 2.9l60.78 11.64 20.31 58.47Z"/>
  </g>
</svg>
