<svg xmlns="http://www.w3.org/2000/svg" fill="none" viewBox="0 0 512 512">
  <g fill="#fff" clip-path="url(#a)">
    <path d="M55.23 81 0 154.68l110.92 69.2 75.87-101.17L119.92 81M512 306.68l-95.84-59.77-96.6 128.82 118.92-20.37L512 342.77M181.27 430.1c18.74-17.04 30.35-40.62 30.35-66.69 0-51.99-46.24-94.16-103.26-94.16S5.12 311.42 5.12 363.42c0 26.06 11.59 49.64 30.32 66.67m361.69-264.31-25.9-68.02-77.57-13.55L242 138.67l25.9 68.05 77.57 13.54 51.65-54.48Z"/>
  </g>
  <defs>
    <clipPath id="a">
      <path fill="#fff" d="M0 0h512v512H0z"/>
    </clipPath>
  </defs>
</svg>
