<svg xmlns="http://www.w3.org/2000/svg" version="1.2" viewBox="0 0 440 301">
  <path fill="transparent" d="M440 300.5H0V.31h440V300.5Z"/>
  <path fill="currentColor" stroke="#fff" stroke-linecap="round" stroke-linejoin="round" stroke-width="1.6" d="M283.14 211.14H156.86c-1.52 0-2.75-1.24-2.75-2.76v-1.02c0-1.52 1.23-2.75 2.75-2.75h126.28c1.52 0 2.75 1.23 2.75 2.75v1.02c0 1.52-1.23 2.76-2.75 2.76Zm0-114.75H156.86c-1.52 0-2.75-1.23-2.75-2.75v-1.02c0-1.52 1.23-2.76 2.75-2.76h126.28c1.52 0 2.75 1.24 2.75 2.76v1.02c0 1.52-1.23 2.75-2.75 2.75Z"/>
  <path fill="transparent" stroke="currentColor" stroke-linecap="round" stroke-linejoin="round" stroke-width="1.5" d="M269.52 204.61h-99.04V89.86h99.04v114.75Z"/>
  <path fill="#fff" stroke="#fefefe" d="M276.92 99.85c-1.82 0-3.29-1.47-3.29-3.3V89.7c0-1.82 1.47-3.3 3.29-3.3s3.3 1.48 3.3 3.3v6.85c0 1.83-1.48 3.3-3.3 3.3Zm-113.72 0c-1.82 0-3.3-1.47-3.3-3.3V89.7c0-1.82 1.48-3.3 3.3-3.3 1.82 0 3.29 1.48 3.29 3.3v6.85c0 1.83-1.47 3.3-3.29 3.3Zm0 114.75c-1.82 0-3.3-1.48-3.3-3.3v-6.86c0-1.82 1.48-3.29 3.3-3.29 1.82 0 3.29 1.47 3.29 3.29v6.86c0 1.82-1.47 3.3-3.29 3.3Zm113.72 0c-1.82 0-3.29-1.48-3.29-3.3v-6.86c0-1.82 1.47-3.29 3.29-3.29s3.3 1.47 3.3 3.29v6.86c0 1.82-1.48 3.3-3.3 3.3Z"/>
  <path fill="none" stroke="#fff" stroke-linecap="round" stroke-linejoin="round" stroke-width="1.4" d="M203.89 100.26h32.22m-56.67 12.54h81.12m-81.12 12.55h81.12m-81.12 12.54h81.12m-81.12 12.54h81.12m-81.12 12.55h81.12m-81.12 12.54h81.12m-81.12 12.54h81.12"/>
  <path fill="currentColor" d="M205.15 121.95h-10.98v-18.29h10.98v18.29Zm22.51 12.54h-15.95V116.2h15.95v18.29Zm-21.32 24.91h-10.43v-18.28h10.43v18.28Zm44.07 0h-10.43v-18.28h10.43v18.28Zm-16.86 12.72h-10.42v-18.29h10.42v18.29Z"/>
  <path fill="currentColor" d="M243.7 184.66h-20.93v-18.28h20.93v18.28Zm-38.55 9.55h-10.46v-12.3h10.46v12.3Z"/>
  <path fill="currentColor" d="M263.21 192.03h-38.62v-35.69h38.62v35.69Z"/>
  <path fill="none" stroke="#fff" stroke-linecap="round" stroke-linejoin="round" stroke-width="1.6" d="M261.31 174.31c0 8.39-6.81 15.2-15.2 15.2s-15.19-6.81-15.19-15.2 6.8-15.19 15.19-15.19 15.2 6.8 15.2 15.19Z"/>
  <path fill="currentColor" d="m230.27 190.5-5.43-7.25 11.99-8.98 5.43 7.25-11.99 8.98Z"/>
  <path fill="#fff" d="M236.36 172.43c.67.3.97 1.08.68 1.75l-2.84 6.38c-.3.67-1.08.97-1.75.67l-6.38-2.83c-.67-.3-.97-1.08-.67-1.75"/>
  <path fill="none" stroke="#fff" stroke-linecap="round" stroke-linejoin="round" stroke-width="1.2" d="M246.11 174.31h9.24m-9.24 0-5.98-9.74"/>
</svg>
