<svg xmlns="http://www.w3.org/2000/svg" version="1.2" viewBox="0 0 440 301">
  <path fill="transparent" d="M440 300.44H0V.24h440v300.2Z"/>
  <path fill="none" stroke="currentColor" stroke-linecap="round" stroke-linejoin="round" stroke-width="1.463" d="M265.03 207.14h-84.65c-1.91 0-3.46-1.55-3.46-3.46h0c0-1.91 1.55-3.46 3.46-3.46h84.65c1.91 0 3.46 1.55 3.46 3.46h0c0 1.91-1.55 3.46-3.46 3.46Z"/>
  <path fill="none" stroke="currentColor" stroke-linecap="round" stroke-linejoin="round" stroke-width="1.144" d="M247.63 200.22h-49.84c0-3.8 5.75-7.58 5.75-11.37 0-3.79-5.75-7.59-5.75-11.38h49.84c0 3.77-5.76 7.61-5.76 11.38 0 3.81 5.76 7.56 5.76 11.37Z"/>
  <path fill="none" stroke="currentColor" stroke-linecap="round" stroke-linejoin="round" stroke-width="1.999" d="M298.44 177.47H146.98c-3.9 0-7.06-3.16-7.06-7.06V95.92c0-3.9 3.16-7.06 7.06-7.06h151.46c3.9 0 7.06 3.16 7.06 7.06v74.49c0 3.9-3.16 7.06-7.06 7.06Z"/>
  <path fill="currentColor" stroke="transparent" stroke-linecap="round" stroke-width="2" d="M261.48 140.29h-45.89V111.8h45.89v28.49Z"/>
  <path fill="currentColor" stroke="transparent" stroke-linecap="round" stroke-width="2" d="M229.83 154.53h-45.89v-28.49h45.89v28.49Z"/>
</svg>
