<svg xmlns="http://www.w3.org/2000/svg" version="1.2" viewBox="0 0 440 300">
  <path fill="transparent" d="M440 300.76H0V.76h440v300Z"/>
  <path fill="currentColor" d="M228.24 150.64c0 4.55-3.69 8.23-8.24 8.23-4.55 0-8.24-3.68-8.24-8.23a8.241 8.241 0 0 1 16.48 0Z"/>
  <path fill="none" stroke="currentColor" stroke-width="2.5" d="M234.76 135.88c27.46 27.46 43.11 56.33 34.96 64.48-8.15 8.15-37.02-7.5-64.48-34.96s-43.12-56.33-34.96-64.49c8.15-8.15 37.02 7.5 64.48 34.97Z"/>
  <path fill="none" stroke="currentColor" stroke-width="2.5" d="M215.43 130.27c37.89-8.51 70.65-6.29 73.18 4.96 2.53 11.25-26.14 27.26-64.04 35.77-37.89 8.52-70.65 6.3-73.18-4.95-2.53-11.25 26.14-27.27 64.04-35.78Z"/>
  <path fill="none" stroke="currentColor" stroke-width="2.5" d="M202.36 139.47c20.78-32.81 45.52-54.41 55.26-48.24 9.74 6.16.79 37.76-19.98 70.57-20.78 32.82-45.52 54.41-55.26 48.25-9.74-6.17-.79-37.77 19.98-70.58Z"/>
</svg>
