<svg width="512" height="512" viewBox="0 0 512 512" fill="none" xmlns="http://www.w3.org/2000/svg">
<g clip-path="url(#clip0)">
<path d="M184.362 129.498C82.5537 129.498 0 178.836 0 239.647C0 283.414 42.767 321.233 104.741 338.985C97.2667 366.463 73.5177 390.778 33.4945 411.836C84.8245 411.836 127.828 383.979 139.561 346.492C153.895 348.616 168.892 349.75 184.362 349.75C286.171 349.75 368.724 300.459 368.724 239.647C368.724 178.836 286.171 129.498 184.362 129.498Z" stroke="#636C3A" stroke-width="2.499" stroke-linecap="round" stroke-linejoin="round"/>
<path d="M462.363 250.358C492.77 234.665 512 211.457 512 185.601C512 138.287 447.822 100 368.724 100C289.579 100 225.448 138.287 225.448 185.601C225.448 232.869 289.579 271.155 368.724 271.155C394.017 271.155 417.793 267.232 438.396 260.378C453.079 280.372 480.503 293.844 512 293.844C489.076 281.79 472.498 267.279 462.363 250.358Z" stroke="#636C3A" stroke-width="2.499" stroke-linecap="round" stroke-linejoin="round"/>
<path d="M377.152 184.28C377.152 188.934 373.85 192.708 369.778 192.708C365.706 192.708 362.403 188.934 362.403 184.28C362.403 179.627 365.706 175.852 369.778 175.852C373.85 175.852 377.152 179.627 377.152 184.28Z" fill="#636C3A"/>
<path d="M332.905 184.28C332.905 188.934 329.091 192.708 324.451 192.708C319.812 192.708 316.049 188.934 316.049 184.28C316.049 179.627 319.812 175.852 324.451 175.852C329.091 175.852 332.905 179.627 332.905 184.28Z" fill="#636C3A"/>
<path d="M421.399 184.28C421.399 188.934 418.096 192.708 414.025 192.708C409.953 192.708 406.65 188.934 406.65 184.28C406.65 179.627 409.953 175.852 414.025 175.852C418.096 175.852 421.399 179.627 421.399 184.28Z" fill="#636C3A"/>
</g>
<defs>
<clipPath id="clip0">
<rect width="512" height="512" fill="white"/>
</clipPath>
</defs>
</svg>
