<svg xmlns="http://www.w3.org/2000/svg" version="1.2" viewBox="0 0 440 302">
  <g fill="transparent">
    <path d="M440 301.04H0V.85h440v300.19Z"/>
    <g stroke="currentColor" stroke-width="4">
      <path stroke-linejoin="round" d="M203.67 97.35c-43.04 0-77.94 20.9-77.94 46.68 0 18.56 18.09 34.59 44.27 42.11-3.16 11.66-13.19 21.95-30.11 30.88 21.69 0 39.88-11.8 44.83-27.7 6.06.91 12.41 1.39 18.95 1.39 43.04 0 77.93-20.9 77.93-46.68s-34.89-46.68-77.93-46.68Z"/>
      <path stroke-linejoin="round" d="M321.15 148.73c12.83-6.64 20.95-16.46 20.95-27.42 0-20.02-27.08-36.24-60.5-36.24-33.41 0-60.5 16.22-60.5 36.24 0 20.01 27.09 36.24 60.5 36.24 10.69 0 20.72-1.66 29.43-4.58 6.19 8.48 17.78 14.19 31.07 14.19-9.68-5.11-16.66-11.25-20.95-18.43Z"/>
      <path d="M284.87 120.59c0 1.8-1.47 3.26-3.27 3.26a3.26 3.26 0 0 1 0-6.52c1.8 0 3.27 1.46 3.27 3.26Zm-19.03 0c0 1.8-1.46 3.26-3.27 3.26a3.26 3.26 0 0 1 0-6.52c1.81 0 3.27 1.46 3.27 3.26Zm38.05 0a3.26 3.26 0 1 1-6.521-.001 3.26 3.26 0 0 1 6.521.001Z"/>
    </g>
  </g>
</svg>
