<svg xmlns="http://www.w3.org/2000/svg" fill="none" viewBox="0 0 512 512">
  <path stroke="#fff" stroke-linecap="round" stroke-linejoin="round" stroke-width="15" d="M115.52 339.35a7.5 7.5 0 0 0-5.17-9.18c-29.41-8.42-53.85-21.5-70.8-37.26-16.91-15.73-26.05-33.78-26.05-52.54 0-26 17.7-50.86 49.08-69.61 31.24-18.66 74.87-30.45 123.46-30.45 48.6 0 92.22 11.79 123.46 30.45 31.39 18.75 49.08 43.6 49.08 69.61 0 26.01-17.7 50.85-49.08 69.6-31.23 18.65-74.87 30.43-123.46 30.43-14.74 0-29.02-1.08-42.65-3.1a7.5 7.5 0 0 0-8.26 5.18c-7.68 24.54-31.3 45.28-62.88 54.06 22.69-16.78 37.45-35.77 43.27-57.19Z"/>
  <path stroke="#fff" stroke-linecap="round" stroke-linejoin="round" stroke-width="15" d="M454.09 244.17a7.5 7.5 0 0 0-3 10.52c5.46 9.12 12.61 17.46 21.35 25.07-13.71-5.26-24.94-13.59-32.27-23.58a7.5 7.5 0 0 0-8.42-2.68c-19.31 6.43-41.73 10.14-65.67 10.14-37.52 0-71.13-9.09-95.1-23.4-24.12-14.4-37.32-33.25-37.32-52.65 0-19.41 13.2-38.27 37.33-52.68 23.96-14.32 57.57-23.41 95.1-23.41 37.5 0 71.1 9.1 95.07 23.41 24.13 14.4 37.34 33.27 37.34 52.69 0 21.2-15.88 41.84-44.41 56.57Z"/>
  <path fill="#fff" d="M379.91 188.07a10 10 0 1 1-20 0 10 10 0 0 1 20 0Zm-45.27 0c0 5.53-4.52 10-10.03 10a9.99 9.99 0 0 1-9.97-10 10 10 0 1 1 20 0Zm88.48 0a10 10 0 1 1-20 0 10 10 0 0 1 20 0Z"/>
</svg>
