<svg version="1.2" baseProfile="tiny-ps" xmlns="http://www.w3.org/2000/svg" viewBox="0 0 440 301" width="440" height="301">
	<title>CS</title>
	<style>
		tspan { white-space:pre }
		.shp0 { fill: #2d4b6c } 
		.txt1 { font-size: 20px;line-height: 20px;fill: #ffffff;font-weight: bold;font-family: "Open Dyslexic" } 
		.shp2 { fill: #a1aeaf } 
	</style>
	<g id="CS">
		<path id="&lt;Path&gt;" class="shp0" d="M440 300.43L0 300.43L0 0.23L440 0.23L440 300.43Z" />
		<text id="Computer Science
" style="transform: matrix(0.5,0,0,0.5,323.192,10.747)" >
			<tspan x="4.449" y="15.195" class="txt1">Computer Science
</tspan>
		</text>
		<g id="&lt;Group&gt;">
			<path id="&lt;Compound Path&gt;" fill-rule="evenodd" class="shp2" d="M94.72 236.41C100.96 236.41 104.13 241.32 104.13 250.46C103.87 259.52 100.58 264.43 94.38 264.43C88.15 264.43 84.98 259.56 84.98 250.42C85.13 245.85 86 242.37 87.62 239.99C89.25 237.65 91.63 236.41 94.72 236.41ZM94.72 239.16C91.59 239.16 90.04 242.07 90.04 247.93C90.04 251.1 90.42 253.33 91.14 254.8L91.1 254.76C91.74 256.05 92.84 256.69 94.38 256.69C95.9 256.69 97.07 255.9 97.9 254.39C98.73 252.87 99.22 250.65 99.45 247.89C99.45 242.07 97.9 239.16 94.72 239.16ZM92.61 248.45C92.61 246.3 92.84 244.19 94.57 244.19C96.12 244.19 96.5 245.81 96.5 248.45C96.5 249.85 96.12 251.7 94.57 251.7C92.99 251.7 92.61 249.85 92.61 248.45Z" />
			<path id="&lt;Compound Path&gt;" class="shp2" d="M293.23 124.29L296.54 120.98L299.59 124.03L308.23 115.39L304.27 112.72L306.71 110.28L311.07 113.18L313.31 115.43L302.15 126.59L305.2 129.64L301.89 132.95L293.23 124.29Z" />
			<path id="&lt;Compound Path&gt;" fill-rule="evenodd" class="shp2" d="M232.61 55.62C237.21 57.31 238.22 61.79 235.75 68.54C233.1 75.17 229.34 77.9 224.77 76.23C220.16 74.54 219.14 70.08 221.61 63.33C222.96 60 224.55 57.66 226.39 56.35C228.22 55.06 230.32 54.78 232.61 55.62ZM231.86 57.65C229.54 56.81 227.61 58.54 226.03 62.86C225.17 65.2 224.84 66.95 224.98 68.23L224.96 68.2C225.08 69.32 225.72 70.09 226.86 70.51C227.98 70.92 229.06 70.65 230.08 69.76C231.1 68.87 232.07 67.35 232.98 65.38C234.56 61.08 234.2 58.51 231.86 57.65ZM227.78 63.95C228.36 62.36 229.1 60.85 230.39 61.32C231.53 61.74 231.37 63.05 230.65 65C230.28 66.03 229.5 67.3 228.35 66.88C227.18 66.45 227.4 64.98 227.78 63.95Z" />
			<path id="&lt;Compound Path&gt;" class="shp2" d="M211.56 188.56L209.7 184.26L213.66 182.56L208.82 171.33L204.88 174.03L203.51 170.86L207.82 167.88L210.74 166.62L216.99 181.12L220.95 179.41L222.81 183.71L211.56 188.56Z" />
			<path id="&lt;Compound Path&gt;" fill-rule="evenodd" class="shp2" d="M156.45 265.06C160.59 267.68 160.63 272.28 156.78 278.35C152.78 284.26 148.53 286.14 144.41 283.53C140.27 280.9 140.22 276.33 144.07 270.26C146.1 267.28 148.14 265.34 150.22 264.45C152.29 263.58 154.39 263.75 156.45 265.06ZM155.29 266.89C153.21 265.57 150.95 266.85 148.49 270.73C147.15 272.84 146.46 274.48 146.32 275.76L146.31 275.72C146.19 276.85 146.65 277.73 147.68 278.39C148.68 279.02 149.79 278.99 150.98 278.34C152.17 277.68 153.44 276.41 154.75 274.67C157.2 270.81 157.4 268.23 155.29 266.89ZM149.97 272.17C150.88 270.74 151.92 269.43 153.07 270.16C154.1 270.81 153.67 272.05 152.55 273.81C151.96 274.74 150.93 275.81 149.9 275.15C148.85 274.49 149.38 273.1 149.97 272.17Z" />
			<path id="&lt;Compound Path&gt;" fill-rule="evenodd" class="shp2" d="M202.72 218.03C207.61 218.29 209.9 222.27 209.53 229.46C208.95 236.57 206.17 240.29 201.3 240.04C196.41 239.78 194.11 235.83 194.49 228.64C194.79 225.06 195.62 222.37 196.99 220.56C198.36 218.79 200.28 217.91 202.72 218.03ZM202.6 220.2C200.14 220.07 198.81 222.29 198.57 226.89C198.44 229.39 198.64 231.15 199.15 232.34L199.12 232.31C199.57 233.34 200.4 233.89 201.62 233.95C202.81 234.02 203.76 233.44 204.47 232.29C205.19 231.13 205.67 229.4 205.96 227.25C206.19 222.68 205.1 220.33 202.6 220.2ZM200.56 227.41C200.65 225.72 200.91 224.07 202.28 224.14C203.5 224.2 203.73 225.49 203.62 227.57C203.56 228.67 203.19 230.11 201.97 230.04C200.73 229.98 200.51 228.51 200.56 227.41Z" />
			<path id="&lt;Compound Path&gt;" fill-rule="evenodd" class="shp2" d="M197.02 110.61C201.9 110.22 204.7 113.87 205.27 121.04C205.64 128.16 203.37 132.22 198.51 132.61C193.62 133 190.83 129.38 190.26 122.21C190.09 118.62 190.55 115.84 191.67 113.87C192.8 111.93 194.59 110.81 197.02 110.61ZM197.19 112.77C194.73 112.97 193.7 115.35 194.07 119.94C194.27 122.43 194.7 124.15 195.36 125.26L195.33 125.23C195.91 126.2 196.81 126.64 198.02 126.54C199.21 126.44 200.08 125.75 200.63 124.51C201.19 123.27 201.44 121.5 201.44 119.32C201.08 114.76 199.68 112.57 197.19 112.77ZM196.12 120.19C195.98 118.5 196.02 116.83 197.39 116.72C198.6 116.63 199 117.87 199.17 119.95C199.25 121.04 199.07 122.52 197.86 122.62C196.62 122.72 196.2 121.29 196.12 120.19Z" />
			<path id="&lt;Compound Path&gt;" fill-rule="evenodd" class="shp2" d="M149.11 21.02C152.58 17.55 157.08 18.52 162.16 23.6C167.06 28.79 167.96 33.35 164.51 36.8C161.05 40.26 156.57 39.32 151.49 34.23C149.03 31.61 147.58 29.19 147.16 26.96C146.76 24.76 147.39 22.74 149.11 21.02ZM150.65 22.55C148.9 24.29 149.66 26.77 152.92 30.03C154.68 31.8 156.13 32.83 157.35 33.25L157.31 33.25C158.38 33.6 159.35 33.35 160.21 32.49C161.05 31.65 161.26 30.56 160.88 29.25C160.5 27.95 159.54 26.44 158.13 24.78C154.89 21.54 152.41 20.79 150.65 22.55ZM154.64 28.9C153.44 27.7 152.39 26.4 153.36 25.43C154.22 24.57 155.33 25.26 156.8 26.73C157.58 27.51 158.4 28.75 157.54 29.61C156.66 30.49 155.42 29.67 154.64 28.9Z" />
			<path id="&lt;Compound Path&gt;" fill-rule="evenodd" class="shp2" d="M91.75 135C95.21 131.54 99.71 132.5 104.79 137.59C109.69 142.78 110.59 147.34 107.15 150.78C103.68 154.25 99.2 153.3 94.12 148.22C91.66 145.59 90.21 143.18 89.79 140.95C89.39 138.74 90.02 136.73 91.75 135ZM93.28 136.54C91.53 138.28 92.29 140.76 95.55 144.02C97.31 145.78 98.76 146.81 99.98 147.23L99.94 147.23C101.01 147.59 101.98 147.34 102.84 146.48C103.68 145.64 103.89 144.54 103.51 143.24C103.13 141.94 102.17 140.42 100.76 138.76C97.52 135.53 95.04 134.77 93.28 136.54ZM97.27 142.88C96.07 141.69 95.02 140.38 95.99 139.42C96.85 138.55 97.96 139.25 99.44 140.72C100.21 141.5 101.03 142.74 100.17 143.6C99.29 144.48 98.05 143.66 97.27 142.88Z" />
			<path id="&lt;Compound Path&gt;" fill-rule="evenodd" class="shp2" d="M395.84 138.47C399.96 144.87 397.02 151.38 387.62 157.43C378.13 163.16 370.9 163.03 366.81 156.66C362.68 150.25 365.59 143.77 374.99 137.72C379.79 134.85 383.94 133.45 387.46 133.54C390.94 133.66 393.79 135.28 395.84 138.47ZM393.01 140.29C390.93 137.07 386.92 137.4 380.9 141.27C377.64 143.37 375.6 145.24 374.56 146.95L374.57 146.88C373.68 148.39 373.74 149.94 374.77 151.54C375.77 153.09 377.36 153.77 379.46 153.62C381.56 153.48 384.18 152.51 387.16 150.92C393.14 147.07 395.11 143.55 393.01 140.29ZM382.06 144.26C384.27 142.84 386.59 141.67 387.74 143.46C388.77 145.05 387.35 146.51 384.63 148.26C383.19 149.19 381.04 150.02 380.02 148.43C378.97 146.8 380.62 145.19 382.06 144.26Z" />
			<path id="&lt;Compound Path&gt;" fill-rule="evenodd" class="shp2" d="M320.6 55.19C323.42 52.37 327.08 53.15 331.21 57.29C335.2 61.51 335.93 65.22 333.13 68.02C330.31 70.84 326.67 70.07 322.53 65.94C320.53 63.8 319.35 61.84 319.01 60.02C318.68 58.23 319.2 56.59 320.6 55.19ZM321.85 56.43C320.43 57.85 321.04 59.87 323.69 62.52C325.13 63.96 326.31 64.79 327.3 65.13L327.26 65.13C328.14 65.43 328.92 65.22 329.62 64.52C330.31 63.84 330.48 62.95 330.17 61.89C329.86 60.83 329.08 59.6 327.93 58.25C325.3 55.61 323.28 55 321.85 56.43ZM325.09 61.6C324.12 60.62 323.27 59.56 324.05 58.78C324.75 58.08 325.66 58.64 326.85 59.84C327.49 60.47 328.15 61.48 327.45 62.18C326.73 62.9 325.73 62.23 325.09 61.6Z" />
			<path id="&lt;Compound Path&gt;" fill-rule="evenodd" class="shp2" d="M294.79 174.29C301.14 174.91 303.89 180.23 302.99 189.55C301.82 198.77 297.98 203.45 291.67 202.84C285.31 202.22 282.56 196.94 283.46 187.62C284.07 182.97 285.3 179.51 287.19 177.25C289.08 175.02 291.63 173.98 294.79 174.29ZM294.51 177.1C291.32 176.79 289.45 179.6 288.87 185.57C288.56 188.81 288.72 191.12 289.31 192.69L289.27 192.65C289.8 194.02 290.85 194.79 292.43 194.94C293.97 195.09 295.25 194.4 296.24 192.94C297.24 191.48 297.96 189.26 298.46 186.47C299.04 180.54 297.75 177.42 294.51 177.1ZM291.44 186.37C291.65 184.17 292.09 182.04 293.86 182.21C295.44 182.36 295.67 184.06 295.4 186.75C295.27 188.18 294.7 190.03 293.12 189.87C291.5 189.72 291.3 187.79 291.44 186.37Z" />
			<path id="&lt;Compound Path&gt;" fill-rule="evenodd" class="shp2" d="M385.24 245.98C390.01 247.09 391.57 251.42 389.94 258.42C388.11 265.32 384.72 268.5 379.97 267.39C375.2 266.28 373.64 261.98 375.27 254.98C376.2 251.5 377.49 248.99 379.16 247.46C380.82 245.96 382.87 245.43 385.24 245.98ZM384.75 248.09C382.35 247.53 380.64 249.48 379.59 253.97C379.03 256.4 378.92 258.18 379.21 259.43L379.18 259.4C379.45 260.5 380.17 261.18 381.36 261.46C382.51 261.73 383.55 261.33 384.46 260.32C385.37 259.31 386.14 257.69 386.81 255.62C387.85 251.16 387.18 248.66 384.75 248.09ZM381.47 254.83C381.85 253.18 382.4 251.6 383.73 251.91C384.92 252.19 384.92 253.5 384.45 255.53C384.2 256.6 383.58 257.95 382.39 257.67C381.18 257.39 381.22 255.9 381.47 254.83Z" />
			<path id="&lt;Compound Path&gt;" fill-rule="evenodd" class="shp2" d="M65.99 42.08C72.15 40.22 76.75 44.12 79.49 53.15C81.94 62.18 80.16 68.02 74.04 69.87C67.88 71.74 63.29 67.87 60.56 58.84C59.34 54.28 59.16 50.59 60.05 47.75C60.95 44.95 62.93 43.01 65.99 42.08ZM66.82 44.8C63.72 45.74 63.06 49.08 64.81 54.86C65.76 58 66.8 60.09 67.95 61.33L67.9 61.3C68.92 62.38 70.19 62.68 71.72 62.22C73.22 61.77 74.14 60.64 74.5 58.89C74.87 57.15 74.69 54.8 74.09 52.01C72.35 46.27 69.95 43.86 66.82 44.8ZM67.51 54.62C66.86 52.49 66.45 50.33 68.17 49.81C69.7 49.35 70.56 50.84 71.35 53.45C71.77 54.83 71.95 56.78 70.42 57.24C68.85 57.71 67.92 56 67.51 54.62Z" />
			<path id="&lt;Compound Path&gt;" class="shp2" d="M262.52 30.19L265.83 26.88L268.88 29.93L277.52 21.28L273.57 18.62L276.01 16.18L280.37 19.08L282.61 21.32L271.45 32.49L274.5 35.54L271.18 38.85L262.52 30.19Z" />
			<path id="&lt;Compound Path&gt;" class="shp2" d="M49.25 280.47L45.62 274.54L51.09 271.2L41.62 255.72L36.4 260.51L33.72 256.13L39.44 250.85L43.45 248.39L55.68 268.39L61.14 265.06L64.77 270.99L49.25 280.47Z" />
			<path id="&lt;Compound Path&gt;" class="shp2" d="M305.66 253.09L308.97 249.78L312.02 252.83L320.66 244.19L316.7 241.53L319.15 239.08L323.51 241.99L325.75 244.23L314.58 255.4L317.63 258.44L314.32 261.76L305.66 253.09Z" />
			<path id="&lt;Compound Path&gt;" class="shp2" d="M134.73 199.34L138.04 196.03L141.09 199.08L149.73 190.44L145.77 187.77L148.21 185.33L152.57 188.24L154.81 190.48L143.65 201.64L146.7 204.69L143.39 208L134.73 199.34Z" />
			<path id="&lt;Compound Path&gt;" class="shp2" d="M33.72 103.78L37.03 100.47L40.08 103.52L48.72 94.88L44.77 92.22L47.21 89.77L51.57 92.68L53.81 94.92L42.65 106.09L45.7 109.14L42.38 112.45L33.72 103.78Z" />
			<path id="&lt;Compound Path&gt;" class="shp2" d="M46.4 201.98L47.84 197.52L51.94 198.85L55.71 187.23L50.98 186.65L52.04 183.37L57.25 183.97L60.26 184.95L55.39 199.97L59.5 201.3L58.05 205.76L46.4 201.98Z" />
			<path id="&lt;Compound Path&gt;" class="shp2" d="M363.8 216.6L361.98 212.28L365.95 210.61L361.19 199.35L357.24 202.01L355.89 198.83L360.23 195.88L363.15 194.65L369.29 209.19L373.26 207.52L375.08 211.83L363.8 216.6Z" />
			<path id="&lt;Compound Path&gt;" class="shp2" d="M240.2 274.3L239.16 270.84L242.35 269.88L239.63 260.85L236.38 262.57L235.61 260.02L239.18 258.12L241.52 257.41L245.02 269.07L248.21 268.12L249.25 271.58L240.2 274.3Z" />
			<path id="&lt;Compound Path&gt;" class="shp2" d="M392.84 98.02L390.47 92.89L395.2 90.7L389.01 77.3L384.34 80.67L382.59 76.88L387.71 73.15L391.18 71.55L399.18 88.87L403.91 86.69L406.28 91.82L392.84 98.02Z" />
			<path id="&lt;Compound Path&gt;" class="shp2" d="M137.22 105.86L135.83 99.54L141.65 98.26L138.02 81.77L131.97 84.39L130.95 79.73L137.58 76.81L141.86 75.87L146.55 97.19L152.37 95.9L153.76 102.23L137.22 105.86Z" />
		</g>
	</g>
</svg>