<svg width="512" height="512" viewBox="0 0 512 512" fill="none" xmlns="http://www.w3.org/2000/svg">
<path d="M426.667 192H234.667C211.103 192 192 211.103 192 234.667V426.667C192 450.231 211.103 469.333 234.667 469.333H426.667C450.231 469.333 469.333 450.231 469.333 426.667V234.667C469.333 211.103 450.231 192 426.667 192Z" stroke="black" stroke-width="20" stroke-linecap="round" stroke-linejoin="round"/>
<path d="M106.667 320H85.3334C74.0175 320 63.1651 315.505 55.1635 307.503C47.162 299.502 42.6667 288.649 42.6667 277.333V85.3334C42.6667 74.0175 47.162 63.1651 55.1635 55.1635C63.1651 47.162 74.0175 42.6667 85.3334 42.6667H277.333C288.649 42.6667 299.502 47.162 307.503 55.1635C315.505 63.1651 320 74.0175 320 85.3334V106.667" stroke="black" stroke-width="20" stroke-linecap="round" stroke-linejoin="round"/>
</svg>
