<svg version="1.2" baseProfile="tiny-ps" xmlns="http://www.w3.org/2000/svg" viewBox="0 0 440 302" width="440" height="302">
	<title>Speak</title>
	<style>
		tspan { white-space:pre }
		.shp0 { fill: #806024 } 
		.txt1 { font-size: 20px;line-height: 20px;fill: #ffffff;font-weight: bold;font-family: "Open Dyslexic" } 
		.shp2 { fill: #ffffff;stroke: #816025;stroke-linecap:round;stroke-linejoin:round;stroke-width: 5 } 
	</style>
	<g id="Speak">
		<path id="&lt;Path&gt;" class="shp0" d="M440 301.04L0 301.04L0 0.85L440 0.85L440 301.04Z" />
		<text id="Speaking, voice &amp; pronounciation
" style="transform: matrix(0.5,0,0,0.5,324.49,10.634)" >
			<tspan x="5.245" y="15.195" class="txt1">Speaking, voice &amp; </tspan>
			<tspan x="21.012" y="35.195" class="txt1">pronounciation
</tspan>
		</text>
		<g id="&lt;Group&gt;">
			<path id="&lt;Path&gt;" class="shp2" d="M203.67 97.35C160.63 97.35 125.73 118.25 125.73 144.03C125.73 162.59 143.82 178.62 170 186.14C166.84 197.8 156.81 208.09 139.89 217.02C161.58 217.02 179.77 205.22 184.72 189.32C190.78 190.23 197.13 190.71 203.67 190.71C246.71 190.71 281.6 169.81 281.6 144.03C281.6 118.25 246.71 97.35 203.67 97.35Z" />
			<path id="&lt;Path&gt;" class="shp2" d="M321.15 148.73C333.98 142.09 342.1 132.27 342.1 121.31C342.1 101.29 315.02 85.07 281.6 85.07C248.19 85.07 221.1 101.29 221.1 121.31C221.1 141.32 248.19 157.55 281.6 157.55C292.29 157.55 302.32 155.89 311.03 152.97C317.22 161.45 328.81 167.16 342.1 167.16C332.42 162.05 325.44 155.91 321.15 148.73Z" />
			<path id="&lt;Path&gt;" class="shp0" d="M284.87 120.59C284.87 122.39 283.4 123.85 281.6 123.85C279.8 123.85 278.34 122.39 278.34 120.59C278.34 118.79 279.8 117.33 281.6 117.33C283.4 117.33 284.87 118.79 284.87 120.59Z" />
			<path id="&lt;Path&gt;" class="shp0" d="M265.84 120.59C265.84 122.39 264.38 123.85 262.57 123.85C260.77 123.85 259.31 122.39 259.31 120.59C259.31 118.79 260.77 117.33 262.57 117.33C264.38 117.33 265.84 118.79 265.84 120.59Z" />
			<path id="&lt;Path&gt;" class="shp0" d="M303.89 120.59C303.89 122.39 302.43 123.85 300.63 123.85C298.83 123.85 297.37 122.39 297.37 120.59C297.37 118.79 298.83 117.33 300.63 117.33C302.43 117.33 303.89 118.79 303.89 120.59Z" />
		</g>
	</g>
</svg>