<svg version="1.2" baseProfile="tiny-ps" xmlns="http://www.w3.org/2000/svg" viewBox="0 0 184 220" width="184" height="220">
	<title>Stag1</title>
	<style>
		tspan { white-space:pre }
		.shp0 { fill: #2c2e35 } 
	</style>
	<g id="Stag1">
		<g id="&lt;Group&gt;">
			<path id="&lt;Path&gt;" class="shp0" d="M129.87 72.44L136.2 72.44L140.95 84.31L157.57 88.27L149.65 137.72L107.32 113.19L129.87 72.44Z" />
			<path id="&lt;Path&gt;" class="shp0" d="M107.32 115.37L125.72 125.85L119.79 148.99L107.32 148.99L107.32 115.37Z" />
			<path id="&lt;Path&gt;" class="shp0" d="M127.5 127.04L148.45 139.08L121.37 158.49L121.37 149.59L127.5 127.04Z" />
			<path id="&lt;Path&gt;" class="shp0" d="M122.26 159.48L131.95 152.65L136.3 214.66L132.44 214.66L122.26 159.48Z" />
			<path id="&lt;Path&gt;" class="shp0" d="M107.32 150.51L119.46 150.51L124.99 219.87L120.25 219.87L107.32 150.51Z" />
			<path id="&lt;Path&gt;" class="shp0" d="M112.86 98.82L105.37 112.74L105.48 128.36L11.72 132.18L27.54 110.03L112.86 98.82Z" />
			<path id="&lt;Path&gt;" class="shp0" d="M11.72 133.5L105.08 130.6L105.08 151.43L23.98 140.23L11.72 133.5Z" />
			<path id="&lt;Path&gt;" class="shp0" d="M11.72 135.48L16.07 157.5L32.03 142.76L23.98 141.68L11.72 135.48Z" />
			<path id="&lt;Path&gt;" class="shp0" d="M16.99 158.16L36.25 168.91L54.44 145.63L33.35 142.99L16.99 158.16Z" />
			<path id="&lt;Path&gt;" class="shp0" d="M24.15 112.9L0.51 134.75L10.8 139.01L9.31 131.19L24.15 112.9Z" />
			<path id="&lt;Path&gt;" class="shp0" d="M21.87 163.63L16.99 171.74L33.35 169.76L21.87 163.63Z" />
			<path id="&lt;Path&gt;" class="shp0" d="M17.92 173.52L29.29 172.24L35.72 207.54L29.09 218.82L17.92 173.52Z" />
			<path id="&lt;Path&gt;" class="shp0" d="M35.72 209.92L31.07 218.82L35.72 218.82L35.72 209.92Z" />
			<path id="&lt;Path&gt;" class="shp0" d="M31.07 172.24L37.01 171.74L41.16 165.61L45.81 202.6L41.46 214.37L31.07 172.24Z" />
			<path id="&lt;Path&gt;" class="shp0" d="M45.81 206.06L43.04 214.37L46.2 214.37L45.81 206.06Z" />
			<path id="&lt;Path&gt;" class="shp0" d="M43.04 161.95L48.18 165.02L56.09 154.93L50.16 153.25L43.04 161.95Z" />
			<path id="&lt;Path&gt;" class="shp0" d="M51.25 152.65L101.19 162.05L105.08 154.93L102.18 152.65L56.09 146.49L51.25 152.65Z" />
			<path id="&lt;Path&gt;" class="shp0" d="M43.04 163.63L46.7 165.61L42.15 165.61L43.04 163.63Z" />
			<path id="&lt;Path&gt;" class="shp0" d="M129.35 71.13L136.2 71.13L146.36 70.2L118.14 52.53L129.35 71.13Z" />
			<path id="&lt;Path&gt;" class="shp0" d="M138.45 72.44L148.45 71.65L183.68 86.69L180.12 92.23L142.4 83.26L138.45 72.44Z" />
			<path id="&lt;Path&gt;" class="shp0" d="M148.07 69.77L149.95 63.15L154.7 61.83L179.92 76.6L148.07 69.77Z" />
			<path id="&lt;Path&gt;" class="shp0" d="M152.92 72.44L183.68 85.8L180.41 77.59L152.92 72.44Z" />
			<path id="&lt;Path&gt;" class="shp0" d="M141.15 64.24L163.99 56.52L141.15 58.2L141.15 64.24Z" />
			<path id="&lt;Path&gt;" class="shp0" d="M149.16 54.64L163.99 48.12L155.98 55.83L149.16 55.83L149.16 54.64Z" />
			<path id="&lt;Path&gt;" class="shp0" d="M134.13 61.17L139.96 64.73L138.45 31.2L133.14 37.73L134.13 61.17Z" />
			<path id="&lt;Path&gt;" class="shp0" d="M141.15 48.12L141.15 57.35L148.47 56.95L141.15 48.12Z" />
			<path id="&lt;Path&gt;" class="shp0" d="M144.44 34.2L141.87 47.32L148.07 54.12L151.7 31.2L144.44 34.2Z" />
			<path id="&lt;Path&gt;" class="shp0" d="M152.57 31.2L151.7 36.91L176.75 22.6L152.57 31.2Z" />
			<path id="&lt;Path&gt;" class="shp0" d="M139.43 30.58L139.7 36.91L161.59 16.99L139.43 30.58Z" />
			<path id="&lt;Path&gt;" class="shp0" d="M128.69 19.1L134.36 19.1L144.44 26.16L139.43 29.26L128.69 19.1Z" />
			<path id="&lt;Path&gt;" class="shp0" d="M128.69 18.31L134.29 18.31L133.63 1.57L128.69 18.31Z" />
			<path id="&lt;Path&gt;" class="shp0" d="M140.42 21.74L151.96 1.57L145.24 25.24L140.42 21.74Z" />
			<path id="&lt;Path&gt;" class="shp0" d="M136.55 30.91L132.25 36.91L103.1 27.28L108.31 24.18L136.55 30.91Z" />
			<path id="&lt;Path&gt;" class="shp0" d="M106.93 24.18L103.1 26.42L96.18 16.34L106.93 24.18Z" />
			<path id="&lt;Path&gt;" class="shp0" d="M115.76 25.24L113.65 -0.02L122.88 26.95L115.76 25.24Z" />
		</g>
	</g>
</svg>