<svg xmlns="http://www.w3.org/2000/svg" version="1.2" viewBox="0 0 184 220">
  <g fill="currentColor">
    <path d="M129.87 72.44h6.33l4.75 11.87 16.62 3.96-7.92 49.45-42.33-24.53 22.55-40.75Zm-22.55 42.93 18.4 10.48-5.93 23.14h-12.47v-33.62Zm20.18 11.67 20.95 12.04-27.08 19.41v-8.9l6.13-22.55Zm-5.24 32.44 9.69-6.83 4.35 62.01h-3.86l-10.18-55.18Zm-14.94-8.97h12.14l5.53 69.36h-4.74l-12.93-69.36Z"/>
    <path d="m112.86 98.82-7.49 13.92.11 15.62-93.76 3.82 15.82-22.15 85.32-11.21ZM11.72 133.5l93.36-2.9v20.83l-81.1-11.2-12.26-6.73Z"/>
    <path d="m11.72 135.48 4.35 22.02 15.96-14.74-8.05-1.08-12.26-6.2Zm5.27 22.68 19.26 10.75 18.19-23.28-21.09-2.64-16.36 15.17Z"/>
    <path d="M24.15 112.9.51 134.75l10.29 4.26-1.49-7.82 14.84-18.29Zm-2.28 50.73-4.88 8.11 16.36-1.98-11.48-6.13Zm-3.95 9.89 11.37-1.28 6.43 35.3-6.63 11.28-11.17-45.3Zm17.8 36.4-4.65 8.9h4.65v-8.9Zm-4.65-37.68 5.94-.5 4.15-6.13 4.65 36.99-4.35 11.77-10.39-42.13Zm14.74 33.82-2.77 8.31h3.16l-.39-8.31Zm-2.77-44.11 5.14 3.07 7.91-10.09-5.93-1.68-7.12 8.7Zm8.21-9.3 49.94 9.4 3.89-7.12-2.9-2.28-46.09-6.16-4.84 6.16Zm-8.21 10.98 3.66 1.98h-4.55l.89-1.98Zm86.31-92.5h6.85l10.16-.93-28.22-17.67 11.21 18.6Zm9.1 1.31 10-.79 35.23 15.04-3.56 5.54-37.72-8.97-3.95-10.82Zm9.62-2.67 1.88-6.62 4.75-1.32 25.22 14.77-31.85-6.83Zm4.85 2.67 30.76 13.36-3.27-8.21-27.49-5.15Zm-11.77-8.2 22.84-7.72-22.84 1.68v6.04Zm8.01-9.6 14.83-6.52-8.01 7.71h-6.82v-1.19Zm-15.03 6.53 5.83 3.56-1.51-33.53-5.31 6.53.99 23.44Zm7.02-13.05v9.23l7.32-.4-7.32-8.83Zm3.29-13.92-2.57 13.12 6.2 6.8 3.63-22.92-7.26 3Zm8.13-3-.87 5.71 25.05-14.31-24.18 8.6Zm-13.14-.62.27 6.33 21.89-19.92-22.16 13.59ZM128.69 19.1h5.67l10.08 7.06-5.01 3.1-10.74-10.16Zm0-.79h5.6l-.66-16.74-4.94 16.74Zm11.73 3.43 11.54-20.17-6.72 23.67-4.82-3.5Zm-3.87 9.17-4.3 6-29.15-9.63 5.21-3.1 28.24 6.73Zm-29.62-6.73-3.83 2.24-6.92-10.08 10.75 7.84Zm8.83 1.06L113.65-.02l9.23 26.97-7.12-1.71Z"/>
  </g>
</svg>
