<svg xmlns="http://www.w3.org/2000/svg" viewBox="0 0 250 250">
  <g fill-rule="evenodd" clip-rule="evenodd">
    <path fill="#010101" d="M25 0h200a25 25 0 0 1 25 25v200a25 25 0 0 1-25 25H25a25 25 0 0 1-25-25V25A25 25 0 0 1 25 0z"/>
    <path fill="#ee1d51" d="M156.98 230c7.6 0 13.77-6.12 13.77-13.66s-6.16-13.67-13.77-13.67h-2.08c7.61 0 13.78 6.12 13.78 13.67S162.5 230 154.9 230z"/>
    <path fill="#66c8cf" d="M154.72 202.68h-2.08c-7.6 0-13.77 6.11-13.77 13.66S145.03 230 152.64 230h2.08c-7.61 0-13.78-6.12-13.78-13.66s6.17-13.67 13.78-13.67z"/>
    <ellipse cx="154.81" cy="216.34" fill="#010101" rx="6.7" ry="6.64"/>
    <path fill="#fff" d="M50 196.5v6.92h8.11v26.4h8.12v-26.2h6.6l2.26-7.12zm66.42 0v6.92h8.1v26.4h8.12v-26.2h6.6l2.27-7.12zm-39.81 3.93a3.94 3.94 0 0 1 3.95-3.93c2.2 0 3.97 1.76 3.97 3.93s-1.78 3.93-3.97 3.93a3.94 3.94 0 0 1-3.95-3.93zm0 6.74h7.92v22.64H76.6zm11.31-10.67v33.31h7.93v-8.6l2.45-2.25 7.74 11.04h8.49l-11.14-16.1 10-9.73h-9.62l-7.92 7.86V196.5zm85.47 0v33.31h7.93v-8.6l2.45-2.25 7.74 11.04H200l-11.13-16.1 10-9.73h-9.63l-7.92 7.86V196.5z"/>
    <path fill="#ee1d52" d="M161.17 81.19A66.57 66.57 0 0 0 200 93.6V65.75a39.26 39.26 0 0 1-8.16-.85v21.92a66.58 66.58 0 0 1-38.83-12.41v56.83a51.5 51.5 0 0 1-80.18 42.77 51.5 51.5 0 0 0 88.33-36V81.2zm10.06-28.1c-5.6-6.1-9.27-14-10.06-22.73v-3.58h-7.73a39 39 0 0 0 17.79 26.3zm-80.4 99.1a23.45 23.45 0 0 1-4.81-14.25c0-13 10.55-23.55 23.56-23.55a23.6 23.6 0 0 1 7.15 1.1V87.02a51.97 51.97 0 0 0-8.15-.47v22.17a23.62 23.62 0 0 0-7.15-1.1 23.55 23.55 0 0 0-10.6 44.57z"/>
    <path fill="#fff" d="M153.01 74.4a66.58 66.58 0 0 0 38.83 12.42V64.9a38.98 38.98 0 0 1-20.61-11.81 39 39 0 0 1-17.8-26.31h-20.29v111.24a23.56 23.56 0 0 1-42.32 14.17 23.54 23.54 0 0 1 17.75-43.48V86.55a51.5 51.5 0 0 0-35.74 87.46 51.5 51.5 0 0 0 80.18-42.77z"/>
    <path fill="#69c9d0" d="M191.84 64.9v-5.93a38.84 38.84 0 0 1-20.61-5.88 38.95 38.95 0 0 0 20.61 11.81zm-38.4-38.12a39.52 39.52 0 0 1-.43-3.2V20h-28.03v111.24a23.55 23.55 0 0 1-34.16 20.95 23.56 23.56 0 0 0 42.32-14.18V26.79zm-44.87 59.77v-6.3a51.97 51.97 0 0 0-7.06-.49 51.5 51.5 0 0 0-28.67 94.25 51.49 51.49 0 0 1 35.74-87.46z"/>
    <path fill="#fff" d="M154.9 230c7.61 0 13.78-6.12 13.78-13.66s-6.17-13.67-13.78-13.67h-.18c-7.61 0-13.78 6.12-13.78 13.67S147.11 230 154.72 230zm-6.79-13.66c0-3.67 3-6.65 6.7-6.65s6.7 2.98 6.7 6.65-3 6.64-6.7 6.64-6.7-2.97-6.7-6.64z"/>
  </g>
</svg>
