<svg xmlns="http://www.w3.org/2000/svg" fill="none" viewBox="0 0 421 453">
  <path fill="white" d="M249.55 15.68c.29.55.57 1.11.83 1.71 1.56 3.67 1.19 7.99-.17 11.43 89.82 18.34 157.31 97.72 157.31 193 0 83.23-51.51 154.33-124.41 183.2a32.9 32.9 0 0 0 2.11 3.49 29 29 0 0 1 3.9 7.84c76.89-31.13 131.2-106.53 131.2-194.53 0-102.45-73.6-187.83-170.77-206.14ZM91 49.46C36.48 87.36.75 150.45.75 221.82c0 106.79 79.96 195.04 183.22 208.11a53.17 53.17 0 0 1-3.23-13.37c-94.71-14.34-167.19-96-167.19-194.74 0-62.64 29.18-118.4 74.69-154.47l.03-.83c.42-6.81 2.02-12.93 2.73-17.06Z"/>
  <path fill="white" fill-rule="evenodd" d="M149.16.69c2.34.03 4.67.26 6.9.62 6.05.99 8.19 5.44 14.31 5.67 14.61.55 35.03-.59 49.56 3.05 6.75 1.7 17.68 5.23 20.4 11.63 1.23 2.87-1.45 5.49-4.51 6.08-10.73 2.07-21.61 2.84-31.48 7.08-6.72 2.88-14.5 11.11-16.8 14.85-2.42 3.94-8.84-5.34-13.28-4.03-3.69 1.1-7.57 5-7.44 8.85.26 7.64 11.48 13.52 17.67 17.71 4.64 3.14 10.69 10.7 6.21 14.07-9.69 7.26-27.39-11.09-39.37-12.86-9.61-1.43-19.38 1.65-28.97 3.21-6.3 1.03-13.63 7.88-18.71 4.03-7.92-6.01-3.43-19.97-1.81-29.78a73.98 73.98 0 0 1 4.23-14.92c2.53-6.57 6.31-14.03 10.78-19.48 5.65-6.88 13.26-11.24 20.96-14.04A32.2 32.2 0 0 1 149.16.69Zm-38.29 90.92c9.5-3.77 16.76-5.72 21.76-5.83 9.27-.21 23.48 4.44 27.03 6.4 9.47 5.22 32.31 28.78 37.27 35.99 15.58 25.18 17.9 33.96 24.04 48.51 3.44 8.14 7.33 30.19 7.12 39.69-.2 8.63 10.57 14.91 17.92 19.06 8.41 4.76 34.42 19.51 46.09 26.18 14.76 11.04 22.01 21.41 26.89 30.87 4.79 9.3 22.78 15.72 22.78 19.94 0 8.08-10.57 4.09-31.8-5.03-7.31-3.14-15.81-5.13-21.26-6.19-1.81-.28-2.05 1.04-.71 3.96-3.45.79-12.87-.52-10.39 1.65 6.93 6.08 7.15 21.65 7.66 22.94 3.35 8.4 12.89 13.98 14.83 14.76-2.33.54-6 5.11-15.61-4.7-6.79-7.93-13.13-17.38-19.93-26.57-4.13-5.59-8.72-10.6-12.86-16.5-1.14 8.88-1.62 15.54-1.42 19.99.55 12.64 4.33 26.18 5.97 37.48 3.42 23.45 11.95 49.15 20.06 60.6 8.89 12.55-.59 19.28-5.69 26.04-8.75 11.6-19.35 11.62-30.16 11.95-6.46.19-27.11-3.62-35.92-11.53-9.21-8.26-14.19-22.21-13.01-34.42 1.52-15.82 6.76-31.21 7.54-47.09.98-20.12.14-54.11-3.7-60.31-2.76.43-10.73 4.95-12.57 7.59-4.07 1.2.94 5.49 3.32 4.78-.43 1.46.3 4.38-3.56 3.56-9.61-1.53-16.72-3.05-21.33-4.55-8.3-2.71-17.04-5.29-25.41-8.36-4.54-1.66-9.43-2.93-13.08-6.1-3.1-2.71-5.92-7.71-3.34-12.14.82-.99 2.6-.32 4.26-.6a8.04 8.04 0 0 0 3.43-1.54c-.24-1.35.45-2.31 1.13-3.27 2.58-2.28 6.44-1.85 10.07-2.03 2.53-.18 3.81-2.89 8.39-.66a3.92 3.92 0 0 1 1.97-1.5c1.62-.53 4.22 2.41 6.6 2.34.16-2.09-.46-4.55-2.27-5.26-5.01-1.97-11.56-12.24-16.22-19.21l-12.31-18.4-10.58-17.54c-5.63-2.86-11.09-5.52-15.55-15-3.8-2.26-6.73-8.22-9.19-16.43-2.21-1.04-3.69-7.18-3.58-9.73-3.13-3.53-8.33-17.73-4.44-22.32-1.48-6.79-.9-13.74-.26-20.64-1.24-9.63 2.48-18.3 6.09-21.31 7.63-6.33 17.28-10.51 24.97-11.64 2.75-3.55 1.09-5.78-1.04-7.88Zm109.53 31.44c2.27 5.44 5.3 10.64 9.25 14.8 7.07 7.42 19.21 10.75 23.19 20.2 5.43 12.89 10.04 16.37 16.93 23.11 6.89 6.75-7.51 7.93-8.4 9.89-1.7 4.69 5.37 11.56 7.26 11.09 3.11-.76-1.34 6.82-3.84 8.82-2.89 2.32-8.35 3.36-16.36 3.13.66 5.06 5.94 8.1 4.41 8.89-4.6 2.39-14.15.17-17.46-8.04-2.68-6.64-3.5-19.95-4.31-27.73-.18-1.74-.72-10.86 6.26-11.95 3.69-.58 3.28-5.93-8.82-21.41-5.44-6.96-12.11-12.1-17.64-21.41-2.29-3.86-3.76-6.8-4.98-13.51 2.84-5.48 10.92-4.53 14.51 4.12Z" clip-rule="evenodd"/>
</svg>
