<svg xmlns="http://www.w3.org/2000/svg" fill="none" viewBox="0 0 512 512">
  <path fill="currentColor" d="M294.08 51.47c.28.53.55 1.07.8 1.64 1.5 3.54 1.15 7.7-.16 11.03 86.6 17.68 151.68 94.22 151.68 186.09 0 80.25-49.66 148.8-119.96 176.64.61 1.17 1.3 2.3 2.04 3.37a27.94 27.94 0 0 1 3.76 7.56c74.14-30.02 126.5-102.72 126.5-187.57 0-98.78-70.96-181.11-164.66-198.76ZM141.21 84.04c-52.57 36.54-87.02 97.37-87.02 166.19 0 102.97 77.1 188.06 176.66 200.66a51.28 51.28 0 0 1-3.11-12.89C136.4 424.17 66.53 345.44 66.53 250.23c0-60.4 28.13-114.16 72.02-148.94l.02-.8c.41-6.57 1.95-12.47 2.64-16.45Z"/>
  <path fill="currentColor" fill-rule="evenodd" d="m134.94 475.16-12.8-8.06c-7.85-4.95-10.3-10.2-7.07-15.3a7.14 7.14 0 0 1 4.71-3.42c1.7-.27 2.94-.12 5.7.78-2.52-2.6-3.4-3.93-4-6.03a8.1 8.1 0 0 1 1.02-6.57 8.92 8.92 0 0 1 6.16-4.1c2.66-.49 6.56.62 10.08 2.84l15.26 9.62-.55.87c-3.83-2.23-4.77-2.05-6.98 1.35l-12.77 20.28c-2.13 3.46-1.9 4.23 1.79 6.87l-.55.87Zm-4.86-21.95c-4.42-2.72-7.95-2.27-10.23 1.34-2.56 4.07-1.06 8.27 4.1 11.33l2.03 1.21c.81.45 1.17.3 1.84-.68l6.63-10.51-4.37-2.7Zm12.63-10.43c.92-1.45.54-2.27-1.7-3.68-3.01-1.9-5.11-2.72-7.1-2.81-2.49-.11-4.57 1.06-6.13 3.53-1.78 2.84-1.73 5.49.22 8.18 1.2 1.73 3.13 3.33 7.57 6.11l7.14-11.33Z" clip-rule="evenodd"/>
  <path fill="currentColor" d="M90.7 442.74c3.33 2.6 4.32 2.53 6.98-.38l16.73-19.3c1.24-1.5 1.01-1.9-2.05-4.71l-2.74-2.37c-5.4-4.4-8.08-4.86-13.71-2.24l-1.02-.89 8.11-5.4 21.95 19.03-.67.78c-3.08-2.38-4.1-2.28-6.73.6l-15.7 18.1c-2.47 3.01-2.44 3.97.36 6.75l-.67.79-11.5-9.98.66-.78Z"/>
  <path fill="currentColor" fill-rule="evenodd" d="m77.03 377.22 8.73 10.64-.8.65c-1.85-2.18-2.77-2.62-3.81-1.76-.58.49-1.43 1.66-2.14 3.09l-2.6 5 8.96 10.94 6.46-2.09a6.12 6.12 0 0 0 1.9-1c1.21-1 1.03-2.24-.62-4.24l.8-.65 6.78 8.27-.79.64c-1.73-1.93-2.8-1.88-11.1.45l-27.62 8.12-.69-.83 15.19-29.85c1.89-3.99 1.97-4.75.55-6.74l.8-.64Zm-1.86 19.6-7.51 14.27 15.41-4.62-7.9-9.64Z" clip-rule="evenodd"/>
  <path fill="currentColor" d="M41.3 365.52c-2.44 2.72-3.31 4.2-3.88 6.58-.67 2.93-.14 6 1.45 8.55 4.1 6.66 12.07 7.67 20.45 2.52 5.1-3.15 8.36-7.12 9.06-11.04.53-3.04-.14-6.19-1.92-9.08-2.34-3.82-5.6-6-10.95-7.4l.32-1.34c5.42.47 10.37 3.77 13.56 8.96 5.63 9.15 3.14 19.12-6.25 24.9-5.06 3.1-10.36 3.95-15.2 2.49a18.8 18.8 0 0 1-10.37-8 24.3 24.3 0 0 1-2.98-7.43c-.15-.7-.4-1.39-.73-2.03-.57-.91-1.57-1.3-2.7-.99l-.6-.96 10.09-6.78.65 1.05Zm-21.92-21.1-5.35-13.1.95-.39c1.64 3.3 2.36 3.94 7 6l13.28 5.66 7.73-16.75c3-6.52 3.2-7.43 2.2-10.04l.95-.4 6.22 15.25-.95.39c-.29-.58-.52-1.14-.62-1.38-.64-1.44-1.26-1.94-1.96-1.66-1.2.5-3.6 4.62-5.84 9.97l-3.08 7.45 1.58.87 9.34-3.82c3.68-1.56 3.98-2.39 2.66-6.34l.96-.38 5.75 14.1-.95.38c-1.84-3.8-2.61-4.12-6.89-2.44l-21.63 8.84c-3.6 1.6-3.99 2.4-2.66 6.33l-.96.4-5.8-14.2.95-.39c1.96 3.93 2.61 4.25 6.38 2.76l10.24-4.17-11.65-5.57c-3.68-1.7-5.64-2.25-6.74-1.8-1.2.49-1.24.97-.17 4.04l-.94.38Zm-5.23-61.22.24 1.34c-2.98 1.4-4.23 2.4-5.64 4.34A9.12 9.12 0 0 0 7 295.9c.59 3.3 2.95 5.18 5.87 4.66 2.93-.52 4.87-3.17 6.9-9.3 2.58-7.69 5.5-11.24 9.87-12 5.47-1 10.5 2.94 11.6 9.1.37 2.08.33 4.33-.1 6.5a8.19 8.19 0 0 0-.13 2.6c.14.8 1 1.3 2.01 1.17l.21 1.17-10.98 3.6-.22-1.22c6.02-3.8 8.35-7.63 7.5-12.4-.7-3.9-3.62-6.11-7.13-5.48a5.8 5.8 0 0 0-3 1.3c-1.79 1.7-3.42 4.84-4.8 9.03-2.08 6.51-4.63 9.38-8.89 10.14a8.61 8.61 0 0 1-7.15-1.63 9.95 9.95 0 0 1-3.57-5.89c-.3-1.96-.25-3.95.16-5.9.26-.97.3-1.91.22-2.45-.17-.9-.86-1.38-2.11-1.38l-.2-1.11 11.1-3.2ZM37.02 252l.69 15.75-1.02.05c-.48-4.53-1.04-4.99-5.67-4.84l-26.97 1.17.12 2.92c.38 6.2 1.34 7.28 7.27 8.27l.06 1.3-9.18.07L1 246.27l9.15-.73.06 1.3c-5.83 1.44-6.7 2.62-6.53 8.88l.13 2.9 27.56-1.19c3.94-.22 4.6-.95 4.63-5.39l1.02-.05Z"/>
  <path fill="currentColor" fill-rule="evenodd" d="m40.43 208.66-.96 8.64-17.94 10.95-.22 3.02 10.56 1.17c3.93.38 4.64-.2 5.38-4.3l1 .12-1.63 14.86-1.02-.11c.12-4.06-.36-4.6-4.92-5.16l-23.24-2.57c-3.92-.37-4.46.11-5.33 4.03l-1.02-.11 1.64-14.81c.55-5.05 2.44-9.35 4.87-11.15a8.55 8.55 0 0 1 6.07-1.45c4.95.55 7.3 3.75 7.9 10.7l14.8-9.55c2-1.36 2.65-2.37 3.04-4.4l1.02.12Zm-21.11 22.4c.45-5.17.35-7.09-.78-9.7-.8-2.05-2.93-3.43-5.62-3.72-5.04-.56-7.7 2.3-8.44 9-.23 2.15.13 2.8 1.63 2.96l13.21 1.45Z" clip-rule="evenodd"/>
  <path fill="currentColor" d="m48.4 179.59-7.66 28.14-.99-.27c.81-3.81.27-4.69-3.46-5.8l-23.13-6.31c-3.78-.92-4.63-.49-5.92 3.25l-1-.26 7.55-27.68 7.49 1.88-.36 1.3c-4.86-.43-5.87.42-7.63 6.42l-1.92 7.04c-.4 1.46-.24 1.73 1.32 2.2l11.56 3.16 2.19-8.03c1.09-4.4.65-5.3-3.4-7.07l.33-1.2 12.1 3.29-.34 1.2c-4.45-.49-5.26.01-6.56 4.36l-2.18 8.02 12.86 3.51c2.03.55 2.1.52 3.73-4.86l.39-1.4c1.97-7.47 1.3-10.17-3.53-14.17l.4-1.46 8.16 4.74Z"/>
  <path fill="currentColor" fill-rule="evenodd" d="m64.22 142.97-5.66 12.55-.93-.42c1.13-2.63 1.1-3.65-.12-4.2-.7-.31-2.13-.55-3.72-.55l-5.63-.11-5.82 12.9 4.74 4.85c.5.52 1.09.94 1.74 1.26 1.42.64 2.46-.07 3.52-2.44l.94.43-4.4 9.74-.93-.42c.97-2.4.45-3.35-5.32-9.75L23.1 145.68l.44-.99 33.48.36c4.42-.09 5.13-.36 6.28-2.5l.93.42Zm-18.4 7.05-16.1-.4L40.7 161.4l5.13-11.37Z" clip-rule="evenodd"/>
  <path fill="currentColor" d="M61.98 85.25c-2.06 3.38-1.86 4.31 1.25 6.64l19.57 13.84c3.24 2.16 4.27 2.03 6.69-1.02l.84.59-8.74 12.34-.84-.59c2.25-3.64 2.1-4.46-1.61-7.16L59.17 95.76l17.28 29.16-.44.62-32.07-6.09 17.77 12.57c4.6 3.12 6 3.11 8.57-.16l.84.59-7.33 10.37-.84-.6c2.33-3.77 2-4.87-2.62-8.27l-17.9-12.66c-3.36-2.24-4.2-2.1-6.93 1.4l-.83-.6 6.17-8.73 29.47 5.56-15.38-25.5 6.2-8.77.85.6Zm341.38 1.53-22.84-18.11.63-.8c3.19 2.24 4.2 2.09 6.7-.9l14.9-18.77c2.33-3.12 2.26-4.07-.66-6.73l.64-.8 22.46 17.81-4.68 6.16-1.05-.85c2.3-4.3 1.93-5.57-2.91-9.54l-5.7-4.53c-1.2-.94-1.5-.9-2.55.34l-7.44 9.38 6.51 5.17c3.63 2.74 4.62 2.7 7.84-.33l.97.77-7.78 9.82-.97-.78c2.2-3.9 2.05-4.84-1.43-7.75l-6.52-5.17-8.29 10.46c-1.3 1.65-1.3 1.72 3 5.34l1.15.9c6.08 4.76 8.82 5.21 14.4 2.34l1.19.93-7.57 5.64Z"/>
  <path fill="currentColor" fill-rule="evenodd" d="M406.36 87.61c2.94 2.8 3.85 2.85 6.8.23l17.67-16.2c2.95-2.77 2.98-3.38.38-6.78l.76-.7 9.84 10.76c5 5.45 7.53 11.1 7.26 16.33-.14 4.23-2.19 8.23-5.77 11.51-3.86 3.54-8.76 5.31-13.47 4.87-4.5-.42-9.64-3.4-13.87-8.02L405.61 88.3l.75-.69Zm9.28 5.41c-1.28 1.17-1.2 1.98.26 3.57 3.18 3.46 5.77 5.33 8.78 6.3 4.83 1.52 9.67.1 14.37-4.22 4.3-3.93 6.22-8.7 5.53-13.78-.4-3.15-2.1-6.28-5.26-9.74-1.54-1.67-2.22-1.78-3.46-.65l-20.22 18.52Z" clip-rule="evenodd"/>
  <path fill="currentColor" d="M480.24 128.55c-2.77-3.42-3.74-3.5-8.57-.54l-11.86 7.61c-3.5 2.25-5.85 3.18-8.46 3.32-4.23.2-8-2.18-11.18-7.14-4.96-7.72-3.6-13.8 4.26-18.84l14.19-9.1c3.33-2.2 3.5-2.95 1.46-6.71l.87-.56 8.25 12.86-.86.56c-2.65-3.43-3.4-3.6-6.74-1.51l-14.55 9.33c-2.87 1.83-4.34 3.23-5.27 4.99-1.35 2.6-1 5.52 1.06 8.74 2.18 3.42 5.46 5.42 8.43 5.25 1.83-.15 3.76-.94 6.85-2.92l12.27-7.88c4.63-3.09 5.1-4.36 3.08-8l.86-.55L481.1 128l-.85.55Zm5.62 38.31c2.81-2.33 3.88-3.67 4.78-5.94 1.08-2.8 1-5.92-.2-8.66-3.1-7.2-10.84-9.33-19.87-5.44-5.5 2.37-9.3 5.83-10.55 9.6-.97 2.95-.76 6.15.59 9.28 1.76 4.11 4.66 6.75 9.76 8.9l-.5 1.27c-5.3-1.25-9.72-5.22-12.14-10.82-4.24-9.87-.35-19.37 9.77-23.73 5.46-2.35 10.83-2.43 15.4-.29a18.9 18.9 0 0 1 9.1 9.42 24.22 24.22 0 0 1 1.89 7.77c.08.86.25 1.66.44 2.12a2.3 2.3 0 0 0 2.53 1.37l.45 1.04-10.96 5.25-.5-1.14Z"/>
  <path fill="currentColor" fill-rule="evenodd" d="m473.57 213.98-3.41-13.34 1-.25c.75 2.76 1.4 3.54 2.71 3.2a10.53 10.53 0 0 0 3.25-1.89l4.47-3.43-3.51-13.7-6.74-.84a6.02 6.02 0 0 0-2.14.1c-1.53.39-1.88 1.6-1.24 4.11l-1 .25-2.65-10.35.99-.27c.75 2.5 1.75 2.9 10.25 4.3l28.47 4.3.27 1.04-26.38 20.64c-3.4 2.83-3.79 3.48-3.33 5.87l-1 .26Zm9.97-17 12.84-9.75-15.93-2.33 3.1 12.09Z" clip-rule="evenodd"/>
  <path fill="currentColor" d="m475.43 235.01-1.67-15.66 1.02-.12c.75 4.48 1.33 4.9 5.96 4.47l26.84-2.87-.3-2.9c-.78-6.15-1.81-7.19-7.8-7.8l-.13-1.28 9.16-.66 3.24 30.28-9.1 1.3-.14-1.3c5.73-1.8 6.52-3.02 5.96-9.26l-.31-2.9-27.43 2.93c-3.92.47-4.53 1.24-4.28 5.67l-1.02.1Zm1.48 9.25c.13 4.53.71 5.19 4.82 5.28l23.97.2c4.05-.01 4.6-.6 4.9-5.18h1.03l-.14 16.04h-1.03c-.12-4.49-.76-5.2-4.8-5.34l-23.98-.21c-4 .07-4.76.82-4.9 5.25l-1.04-.01.15-16.04 1.02.01Z"/>
  <path fill="currentColor" fill-rule="evenodd" d="M502.65 296.66c-3.54 2.51-8.36 3.44-13.66 2.72-10.8-1.46-17.26-9.74-15.83-20.28a17.64 17.64 0 0 1 7.15-11.84c3.45-2.48 8.6-3.52 13.63-2.84 10.8 1.46 17.48 9.77 16.09 20a17.27 17.27 0 0 1-7.38 12.24Zm3.01-20.63c-2.2-2.6-7.2-4.8-12.65-5.52-5.94-.81-11.59.23-14.41 2.62a10.58 10.58 0 0 0-3.54 6.44 9.81 9.81 0 0 0 1.87 7.5 11.1 11.1 0 0 0 3.55 3.16 28.98 28.98 0 0 0 9.39 3.06c6.37.86 11.63-.12 14.64-2.65a10.53 10.53 0 0 0 3.6-6.49c.4-2.94-.42-5.73-2.45-8.12Z" clip-rule="evenodd"/>
  <path fill="currentColor" d="M493.19 344.26c.91-4.18.25-5.12-5.06-6.97l-27.08-8.55.28-.87 35.5-13.82-20.18-6.37c-5.33-1.57-6.66-1.15-8.12 2.75l-.97-.3 3.81-12.1.98.3c-1.07 4.3-.42 5.25 5.01 7.08l22.71 7.16c3.07-1.29 3.71-1.88 4.4-4.1l.99.32-2.79 8.8-31.17 11.96 17.35 5.47c5.5 1.57 6.6 1.18 8.15-2.85l.98.3-3.82 12.1-.97-.31Z"/>
  <path fill="currentColor" fill-rule="evenodd" d="M197.29 37.01c2.25.03 4.5.25 6.65.6 5.83.95 7.9 5.24 13.8 5.47 14.08.53 33.77-.57 47.78 2.94 6.51 1.64 17.05 5.04 19.67 11.21 1.19 2.77-1.4 5.3-4.34 5.86-10.35 2-20.84 2.74-30.36 6.83-6.48 2.78-13.98 10.71-16.2 14.32-2.33 3.8-8.52-5.15-12.8-3.89-3.56 1.06-7.3 4.82-7.18 8.54.25 7.36 11.07 13.03 17.04 17.07 4.48 3.03 10.3 10.32 5.99 13.57-9.34 7-26.41-10.7-37.96-12.4-9.27-1.38-18.69 1.59-27.94 3.1-6.07.99-13.14 7.6-18.03 3.88-7.64-5.8-3.31-19.26-1.75-28.71a71.33 71.33 0 0 1 4.08-14.4c2.44-6.34 6.08-13.53 10.4-18.78 5.44-6.64 12.78-10.84 20.2-13.54A31.05 31.05 0 0 1 197.3 37Zm-36.92 87.67c9.16-3.64 16.16-5.52 20.98-5.62 8.94-.2 22.64 4.28 26.06 6.17 9.13 5.03 31.15 27.75 35.94 34.7 15.02 24.28 17.26 32.75 23.18 46.77 3.31 7.85 7.06 29.11 6.86 38.27-.2 8.32 10.2 14.38 17.28 18.38 8.11 4.6 33.19 18.81 44.44 25.25 14.23 10.64 21.22 20.64 25.93 29.76 4.62 8.97 21.96 15.16 21.96 19.23 0 7.79-10.19 3.94-30.66-4.85-7.05-3.03-15.24-4.95-20.5-5.97-1.74-.27-1.97 1-.68 3.82-3.33.76-12.41-.5-10.02 1.59 6.68 5.86 6.9 20.87 7.39 22.12 3.23 8.1 12.43 13.48 14.3 14.23-2.25.52-5.79 4.93-15.06-4.53-6.54-7.65-12.66-16.76-19.21-25.62-3.99-5.4-8.41-10.22-12.4-15.91-1.1 8.56-1.56 14.98-1.37 19.27.53 12.2 4.17 25.25 5.75 36.14 3.3 22.61 11.53 47.4 19.35 58.43 8.57 12.1-.57 18.6-5.49 25.11-8.44 11.19-18.66 11.2-29.08 11.52-6.23.19-26.14-3.49-34.63-11.11-8.89-7.97-13.69-21.42-12.55-33.2 1.47-15.25 6.52-30.08 7.27-45.4.94-19.4.13-52.17-3.57-58.15-2.66.42-10.34 4.77-12.12 7.32-3.92 1.16.9 5.3 3.2 4.6-.41 1.42.3 4.23-3.43 3.44-9.27-1.47-16.12-2.94-20.57-4.39-8-2.6-16.43-5.1-24.5-8.06-4.37-1.6-9.09-2.82-12.6-5.88-3-2.61-5.72-7.43-3.23-11.7.8-.96 2.5-.31 4.1-.58a7.75 7.75 0 0 0 3.32-1.49c-.24-1.3.43-2.22 1.09-3.15 2.48-2.2 6.2-1.78 9.7-1.96 2.44-.17 3.68-2.78 8.1-.63a3.78 3.78 0 0 1 1.9-1.45c1.56-.51 4.06 2.32 6.36 2.26.15-2.02-.44-4.4-2.2-5.08-4.82-1.9-11.14-11.8-15.63-18.52l-11.87-17.74-10.2-16.91c-5.43-2.76-10.7-5.32-15-14.47-3.66-2.18-6.48-7.92-8.86-15.84-2.13-1-3.55-6.92-3.45-9.38-3.02-3.4-8.03-17.1-4.28-21.52-1.43-6.55-.87-13.25-.25-19.9-1.2-9.29 2.4-17.65 5.87-20.55 7.36-6.1 16.66-10.13 24.08-11.22 2.65-3.43 1.05-5.58-1-7.6Zm105.6 30.31c2.2 5.25 5.12 10.26 8.93 14.27 6.81 7.16 18.52 10.37 22.36 19.48 5.23 12.43 9.68 15.78 16.32 22.28 6.64 6.51-7.24 7.65-8.1 9.54-1.64 4.52 5.18 11.15 7 10.7 3-.74-1.3 6.57-3.7 8.5-2.79 2.24-8.05 3.24-15.78 3.02.64 4.88 5.73 7.8 4.26 8.57-4.44 2.3-13.65.16-16.84-7.75-2.58-6.4-3.37-19.24-4.16-26.74-.17-1.68-.69-10.47 6.04-11.53 3.56-.55 3.16-5.71-8.5-20.64-5.25-6.71-11.68-11.67-17.01-20.64-2.21-3.73-3.63-6.56-4.8-13.03 2.73-5.28 10.52-4.37 13.99 3.97Z" clip-rule="evenodd"/>
</svg>
