<svg width="512" height="512" viewBox="0 0 512 512" fill="none" xmlns="http://www.w3.org/2000/svg">
<path d="M341.333 85.3333H384C395.316 85.3333 406.168 89.8285 414.17 97.83C422.171 105.832 426.667 116.684 426.667 128V426.667C426.667 437.982 422.171 448.835 414.17 456.836C406.168 464.838 395.316 469.333 384 469.333H128C116.684 469.333 105.832 464.838 97.83 456.836C89.8285 448.835 85.3333 437.982 85.3333 426.667V128C85.3333 116.684 89.8285 105.832 97.83 97.83C105.832 89.8285 116.684 85.3333 128 85.3333H170.667" stroke="currentColor" stroke-width="20" stroke-linecap="round" stroke-linejoin="round"/>
<path d="M320 42.6667H192C180.218 42.6667 170.667 52.218 170.667 64.0001V106.667C170.667 118.449 180.218 128 192 128H320C331.782 128 341.333 118.449 341.333 106.667V64.0001C341.333 52.218 331.782 42.6667 320 42.6667Z" stroke="currentColor" stroke-width="20" stroke-linecap="round" stroke-linejoin="round"/>
</svg>
