<svg width="512" height="512" viewBox="0 0 512 512" fill="none" xmlns="http://www.w3.org/2000/svg">
<path d="M234.667 85.3335H85.3334C74.0175 85.3335 63.1651 89.8287 55.1635 97.8303C47.162 105.832 42.6667 116.684 42.6667 128V426.667C42.6667 437.983 47.162 448.835 55.1635 456.837C63.1651 464.838 74.0175 469.334 85.3334 469.334H384C395.316 469.334 406.168 464.838 414.17 456.837C422.172 448.835 426.667 437.983 426.667 426.667V277.334" stroke="currentColor" stroke-width="20" stroke-linecap="round" stroke-linejoin="round"/>
<path d="M394.667 53.333C403.154 44.846 414.664 40.0781 426.667 40.0781C438.669 40.0781 450.18 44.846 458.667 53.333C467.154 61.8199 471.922 73.3306 471.922 85.333C471.922 97.3353 467.154 108.846 458.667 117.333L256 320L170.667 341.333L192 256L394.667 53.333Z" stroke="currentColor" stroke-width="20" stroke-linecap="round" stroke-linejoin="round"/>
</svg>
