<svg width="512" height="512" viewBox="0 0 512 512" fill="none" xmlns="http://www.w3.org/2000/svg">
<path d="M213.333 277.333C222.495 289.581 234.184 299.715 247.606 307.049C261.029 314.382 275.872 318.743 291.129 319.836C306.385 320.928 321.698 318.727 336.029 313.381C350.36 308.036 363.373 299.67 374.187 288.853L438.187 224.853C457.617 204.735 468.368 177.791 468.125 149.823C467.882 121.856 456.664 95.1023 436.887 75.3254C417.11 55.5486 390.357 44.3306 362.389 44.0875C334.422 43.8445 307.478 54.5959 287.36 74.0261L250.667 110.506" stroke="black" stroke-width="10" stroke-linecap="round" stroke-linejoin="round"/>
<path d="M298.666 234.666C289.504 222.418 277.815 212.284 264.393 204.95C250.97 197.617 236.127 193.256 220.871 192.163C205.614 191.071 190.301 193.272 175.97 198.618C161.64 203.963 148.626 212.329 137.812 223.146L73.8124 287.146C54.3822 307.264 43.6308 334.208 43.8738 362.176C44.1169 390.143 55.3349 416.897 75.1118 436.674C94.8886 456.45 121.642 467.668 149.61 467.912C177.577 468.155 204.521 457.403 224.639 437.973L261.119 401.493" stroke="black" stroke-width="10" stroke-linecap="round" stroke-linejoin="round"/>
</svg>
