<svg xmlns="http://www.w3.org/2000/svg" version="1.2" viewBox="0 0 158 176">
  <path fill="currentColor" d="M79 .76v53.62H30.04l18.65-38.47L79 .76ZM28.68 56.52h44.3L56.46 158.51l-23.89 11.85-31.86-54.4 27.97-59.44Zm50.32 0h-3.89l-1.68 10.49H79V56.52ZM71.63 77.5H79v13.6h-9.2l1.83-13.6Zm-3.19 25.12H79v13.6H66.62l1.82-13.6Zm-3.66 25.13H79v13.6H62.96l1.82-13.6ZM79 151.65v11.72l-10.02.01-7.46-7.2 1.44-4.53H79Zm0 16.28v7.29l-6.19-7.29H79ZM79 .76v53.62h48.96l-18.65-38.47L79 .76Zm50.32 55.76h-44.3l16.52 101.99 23.89 11.85 31.86-54.4-27.97-59.44Zm-50.32 0h3.89l1.68 10.49H79V56.52Zm7.37 20.98H79v13.6h9.2l-1.83-13.6Zm3.19 25.12H79v13.6h12.38l-1.82-13.6Zm3.66 25.13H79v13.6h16.04l-1.82-13.6ZM79 151.65v11.72l10.02.01 7.46-7.2-1.44-4.53H79Zm0 16.28v7.29l6.19-7.29H79Z"/>
</svg>
