<svg xmlns="http://www.w3.org/2000/svg" baseProfile="tiny-ps" version="1.2" viewBox="0 0 158 176">
  <g id="Bee1">
    <g id="&lt;Group&gt;">
      <g id="&lt;Group&gt;">
        <path id="&lt;Path&gt;" d="M79 .76v53.62H30.04l18.65-38.47L79 .76ZM28.68 56.52h44.3L56.46 158.51l-23.89 11.85-31.86-54.4 27.97-59.44ZM79 56.52h-3.89l-1.68 10.49H79V56.52ZM71.63 77.5H79v13.6h-9.2l1.83-13.6ZM68.44 102.62H79v13.6H66.62l1.82-13.6ZM64.78 127.75H79v13.6H62.96l1.82-13.6ZM79 151.65v11.72l-10.02.01-7.46-7.2 1.44-4.53H79ZM79 167.93v7.29l-6.19-7.29H79Z" class="shp0"/>
      </g>
      <g id="&lt;Group&gt;">
        <path id="&lt;Path&gt;" d="M79 .76v53.62h48.96l-18.65-38.47L79 .76ZM129.32 56.52h-44.3l16.52 101.99 23.89 11.85 31.86-54.4-27.97-59.44ZM79 56.52h3.89l1.68 10.49H79V56.52ZM86.37 77.5H79v13.6h9.2l-1.83-13.6ZM89.56 102.62H79v13.6h12.38l-1.82-13.6ZM93.22 127.75H79v13.6h16.04l-1.82-13.6ZM79 151.65v11.72l10.02.01 7.46-7.2-1.44-4.53H79ZM79 167.93v7.29l6.19-7.29H79Z" class="shp0"/>
      </g>
    </g>
  </g>
</svg>
