<svg xmlns="http://www.w3.org/2000/svg" version="1.2" viewBox="0 0 303 1114">
  <path fill="currentColor" d="m131.99 37.54 16.35-16.09v47.47l-16.35-31.38Zm37.49 0-16.35-16.09v47.47l16.35-31.38ZM31.51.35l95.21 36.13 15.03 29.28-64.88 7.91-36.13-18.2L31.51.35Zm238.98 0-95.21 36.13-15.03 29.28 64.88 7.91 36.13-18.2L270.49.35ZM77.4 77.23l66.46-7.91 4.75 9.76-52.49 103.65-18.72-54.86V77.23Zm147.2 0-66.46-7.91-4.75 9.76 52.49 103.65 18.72-54.86V77.23Zm-58.68 34.6-14.81 29.93-15.03-30.27 15.03-30.28 14.81 30.62Z"/>
</svg>
