<svg xmlns="http://www.w3.org/2000/svg" baseProfile="tiny-ps" version="1.2" viewBox="0 0 303 1114">
  <g id="Butterfly1">
    <g id="&lt;Group&gt;">
      <path id="&lt;Path&gt;" d="m131.99 37.54 16.35-16.09v47.47l-16.35-31.38ZM169.48 37.54l-16.35-16.09v47.47l16.35-31.38ZM31.51.35l95.21 36.13 15.03 29.28-64.88 7.91-36.13-18.2L31.51.35ZM270.49.35l-95.21 36.13-15.03 29.28 64.88 7.91 36.13-18.2L270.49.35ZM77.4 77.23l66.46-7.91 4.75 9.76-52.49 103.65-18.72-54.86V77.23ZM224.6 77.23l-66.46-7.91-4.75 9.76 52.49 103.65 18.72-54.86V77.23ZM165.92 111.83l-14.81 29.93-15.03-30.27 15.03-30.28 14.81 30.62Z" class="shp0"/>
    </g>
  </g>
</svg>
