<svg xmlns="http://www.w3.org/2000/svg" version="1.2" viewBox="0 0 184 245">
  <g fill="currentColor">
    <path d="m17.8 2.97 16.19 37.32L17.8 51.63V2.97Zm-.92 51.85L1.35 83.01l59.18 42.73-43.65-70.92ZM31.44 107.55l30.91 21.89 11.6 10.75v59.47l-42.51-92.11ZM130.1 2.97l-16.19 37.32 16.19 11.34V2.97Zm.92 51.85 15.53 28.19-59.18 42.73 43.65-70.92ZM116.46 107.55l-30.91 21.89-11.6 10.75v59.47l42.51-92.11ZM72.5 202.99l-39.69 24.07 42.8 17.08-3.11-41.15Z"/>
    <g>
      <path d="M73.95 27.89h-18.2L18.3 53.74l45.1 73.65 10.55-3.5v-96Zm-9.76 100.48 9.76-3.36v12.4l-9.76-9.04ZM18.3.46l35.74 26.51-17.87 12.26L18.3.46Zm55.65 27.43h18.2l37.45 25.85-45.1 73.65-10.55-3.5v-96Z"/>
      <path d="m83.71 128.37-9.76-3.36v12.4l9.76-9.04ZM129.6.46 93.86 26.97l17.87 12.26L129.6.46Zm-9.26 105.11-42.72 91.98 89.4-56.37-46.68-35.61Zm48.87 38.19L80.33 244.64l76.61-13.85 26.71-36.59-14.44-50.44Zm-2.22-.5-92.04 58.88 3.17 42 88.87-100.88Z"/>
    </g>
  </g>
</svg>
