<svg xmlns="http://www.w3.org/2000/svg" baseProfile="tiny-ps" version="1.2" viewBox="0 0 184 245">
  <g id="Fox1">
    <g id="&lt;Group&gt;">
      <path id="&lt;Path&gt;" d="m17.8 2.97 16.19 37.32L17.8 51.63V2.97ZM16.88 54.82 1.35 83.01l59.18 42.73-43.65-70.92Z" class="shp0"/>
      <path id="&lt;Path&gt;" d="m31.44 107.55 30.91 21.89 11.6 10.75v59.47l-42.51-92.11Z" class="shp1"/>
      <path id="&lt;Path&gt;" d="m130.1 2.97-16.19 37.32 16.19 11.34V2.97ZM131.02 54.82l15.53 28.19-59.18 42.73 43.65-70.92Z" class="shp0"/>
      <path id="&lt;Path&gt;" d="m116.46 107.55-30.91 21.89-11.6 10.75v59.47l42.51-92.11Z" class="shp1"/>
      <path id="&lt;Path&gt;" d="m72.5 202.99-39.69 24.07 42.8 17.08-3.11-41.15Z" class="shp0"/>
    </g>
    <g id="&lt;Group&gt;">
      <path id="&lt;Path&gt;" d="M73.95 27.89h-18.2L18.3 53.74l45.1 73.65 10.55-3.5v-96ZM64.19 128.37l9.76-3.36v12.4l-9.76-9.04ZM18.3.46l35.74 26.51-17.87 12.26L18.3.46ZM73.95 27.89h18.2l37.45 25.85-45.1 73.65-10.55-3.5v-96Z" class="shp2"/>
      <path id="&lt;Path&gt;" d="m83.71 128.37-9.76-3.36v12.4l9.76-9.04ZM129.6.46 93.86 26.97l17.87 12.26L129.6.46ZM120.34 105.57l-42.72 91.98 89.4-56.37-46.68-35.61ZM169.21 143.76 80.33 244.64l76.61-13.85 26.71-36.59-14.44-50.44ZM166.99 143.26l-92.04 58.88 3.17 42 88.87-100.88Z" class="shp2"/>
    </g>
  </g>
</svg>
