<svg xmlns="http://www.w3.org/2000/svg" baseProfile="tiny-ps" version="1.2" viewBox="0 0 190 191">
  <g id="Owl1">
    <g id="&lt;Group&gt;">
      <g id="&lt;Group&gt;">
        <path id="&lt;Path&gt;" d="m30.91.64 34.02 13.25 6.93 18.2-25.52 8.31L30.91.64ZM46.87 41.52l24.99-8.05-21.02 26.32-3.97-18.27ZM51.44 60.67l13.49-16.52 10.29-1.45 2.24 2.64 10.55.13 1.58 4.49-32.12 15.59-6.03-4.88Z" class="shp0"/>
        <path id="&lt;Path&gt;" d="m89.99 51.34 3.92 12.69L88.47 76H31.41l-4.85-18.99 11.77-33.23 7.12 17.7 4.59 19.57 7.43 5.75M24.78 57.8l-13.45 7.75-11.28 50.6 35.21-20.77L24.78 57.8Z" class="shp0"/>
        <path id="&lt;Path&gt;" d="M32.36 77.58h35.48l-23.21 55.45 10.81 15.3-8.57 11.87-20.31-15.56-15.16-28.49 1.12-5.53 24.99-14.25" class="shp0"/>
        <path id="&lt;Path&gt;" d="m10.34 111.83-1.11 4.32 5.04 9.17H2.34l-1.96-8.01M67.84 80.81l-20.97 51.83 17.14 24.52 29.9 7.65-26.07-62.37V80.81ZM64.04 158.48 93.91 166l-16.02 24.13-13.85-31.65ZM70.52 16.56H95V42.7H77.89l-7.37-26.14ZM64.14 11.12l7.72 3.56H95V8.94l-30.86 2.18ZM88.87 45.34 95 62.05V45.34h-6.13Z" class="shp0"/>
        <path id="&lt;Path&gt;" d="M70.52 77.58H95l-1.09 83.15-23.39-58.55v-24.6Z" class="shp0"/>
      </g>
      <g id="&lt;Group&gt;">
        <path id="&lt;Path&gt;" d="m159.09.64-34.02 13.25-6.93 18.2 25.52 8.31L159.09.64ZM143.13 41.52l-24.99-8.05 21.02 26.32 3.97-18.27ZM138.56 60.67l-13.49-16.52-10.29-1.45-2.24 2.64-10.55.13-1.58 4.49 32.12 15.59 6.03-4.88Z" class="shp0"/>
        <path id="&lt;Path&gt;" d="m100.01 51.34-3.92 12.69L101.53 76h57.06l4.85-18.99-11.77-33.23-7.12 17.7-4.59 19.57-7.43 5.75M165.22 57.8l13.45 7.75 11.28 50.6-35.21-20.77 10.48-37.58Z" class="shp0"/>
        <path id="&lt;Path&gt;" d="M157.64 77.58h-35.48l23.21 55.45-10.81 15.3 8.57 11.87 20.31-15.56 15.16-28.49-1.12-5.53-24.99-14.25" class="shp0"/>
        <path id="&lt;Path&gt;" d="m179.66 111.83 1.11 4.32-5.04 9.17h11.93l1.96-8.01M122.16 80.81l20.97 51.83-17.14 24.52-29.9 7.65 26.07-62.37V80.81ZM125.96 158.48 96.09 166l16.02 24.13 13.85-31.65ZM119.48 16.56H95V42.7h17.11l7.37-26.14ZM125.86 11.12l-7.72 3.56H95V8.94l30.86 2.18ZM101.13 45.34 95 62.05V45.34h6.13Z" class="shp0"/>
        <path id="&lt;Path&gt;" d="M119.48 77.58H95l1.09 83.15 23.39-58.55v-24.6Z" class="shp0"/>
      </g>
    </g>
  </g>
</svg>
